<svg xmlns="http://www.w3.org/2000/svg" width="146" height="80" viewBox="0 0 146 80" fill="none" preserveAspectRatio="none">
<g id="Mask group">
<mask id="mask0_0_9" style="mask-type:alpha" maskUnits="userSpaceOnUse" x="0" y="0" width="146" height="80">
<path id="Rectangle 34625894" d="M0 16C0 7.16344 7.16344 0 16 0H129.967C138.816 0 145.985 7.18362 145.967 16.0331L145.868 64.0331C145.849 72.8567 138.691 80 129.868 80H16C7.16346 80 0 72.8366 0 64V16Z" fill="url(#paint0_linear_0_9)"/>
</mask>
<g mask="url(#mask0_0_9)">
<g id="ææ">
<path d="M79.9696 0.0356162C79.7773 0.440732 79.5811 0.84971 79.3849 1.25869C79.285 1.46513 79.1861 1.67235 79.0868 1.88049C78.9876 2.08824 78.8875 2.298 78.786 2.50772C77.9949 2.69694 77.2123 2.88895 76.4379 3.08024C75.6677 3.27117 74.9019 3.46524 74.1446 3.6621C73.3911 3.85509 72.642 4.05123 71.9015 4.25015C71.1647 4.44521 70.4283 4.64377 69.7045 4.84476C69.8236 4.59663 69.9409 4.34866 70.0577 4.10178L70.0586 4.09995L70.2326 3.73253C70.4078 3.36775 70.5788 3.00333 70.7499 2.6389L70.878 2.36851C71.0055 2.09937 71.1319 1.83231 71.2608 1.56701L71.4292 1.21342C71.5406 0.979578 71.6518 0.746309 71.761 0.513706C72.5061 0.272029 73.2597 0.0331357 74.0215 -0.206478C74.7834 -0.44609 75.5537 -0.682919 76.3323 -0.920467C77.115 -1.15838 77.9018 -1.39664 78.6971 -1.63213C79.4966 -1.86797 80.3043 -2.10453 81.1164 -2.33795C80.9934 -2.0791 80.8687 -1.82008 80.7435 -1.56L80.5523 -1.16258C80.4271 -0.898821 80.3001 -0.634911 80.1725 -0.369925L79.9779 0.0348958L79.9696 0.0356162Z" fill="white" fill-opacity="0.06"/>
<path d="M116.718 2.56729C117.804 2.48637 118.903 2.40787 120.011 2.33917L120.008 2.34303C121.128 2.26974 122.261 2.20589 123.403 2.14832C124.562 2.08931 125.73 2.04009 126.914 1.99294C127.14 1.54659 127.363 1.10339 127.585 0.662247L127.588 0.656425C127.712 0.409632 127.835 0.16348 127.959 -0.0822235C128.176 -0.509645 128.391 -0.936923 128.604 -1.3614C128.728 -1.60821 128.852 -1.85407 128.975 -2.09846C129.307 -2.75932 129.635 -3.4128 129.963 -4.06278C130.252 -4.63489 130.539 -5.20394 130.822 -5.76746L130.833 -5.78864L130.834 -5.79199L130.927 -5.97554C129.688 -5.83542 128.466 -5.69323 127.261 -5.54548C126.069 -5.4023 124.889 -5.2497 123.722 -5.09467C122.568 -4.94072 121.422 -4.78399 120.293 -4.62168C119.172 -4.4601 118.064 -4.29609 116.965 -4.1258L116.134 -2.45054C116.002 -2.18389 115.869 -1.91638 115.735 -1.64806L115.733 -1.64315L115.676 -1.52866C115.545 -1.26474 115.413 -1.00004 115.282 -0.734592C115.146 -0.460592 115.01 -0.185743 114.873 0.0899243L114.864 0.108236C114.712 0.413029 114.56 0.718819 114.409 1.02555L114.178 1.49146C113.959 1.93549 113.739 2.38153 113.514 2.82989C114.575 2.73712 115.64 2.64749 116.718 2.56729Z" fill="white" fill-opacity="0.06"/>
<path d="M99.2673 31.5403L99.2697 31.5353L99.3702 31.3325L99.4268 31.2185L99.4276 31.2171C99.8413 30.3853 100.252 29.5603 100.655 28.7423C99.7789 28.526 98.908 28.3234 98.0381 28.1312C97.1807 27.9415 96.3283 27.7619 95.4851 27.5921C94.6463 27.4254 93.8126 27.2689 92.9835 27.1191C92.163 26.972 91.3475 26.8351 90.5326 26.7052C90.869 26.0204 91.2019 25.3391 91.5317 24.6642L91.5868 24.5515C91.7682 24.1802 91.9498 23.8099 92.1304 23.4417L92.133 23.4364C92.294 23.1079 92.4543 22.7811 92.6129 22.4568C92.8339 22.0077 93.0516 21.5619 93.2682 21.1183L93.9254 19.7739C94.1452 19.3242 94.3639 18.8767 94.5828 18.4325C93.7218 18.4163 92.8697 18.4063 92.026 18.3991C91.1848 18.395 90.3525 18.3972 89.5249 18.4061C88.7056 18.4142 87.8909 18.429 87.0807 18.447C86.279 18.4677 85.4817 18.4915 84.6892 18.522C84.827 18.2359 84.965 17.9516 85.1025 17.6682L85.1038 17.6657C85.2386 17.3878 85.3731 17.1108 85.5065 16.8339C85.6412 16.5544 85.7759 16.2758 85.9103 15.9982L85.9118 15.995L85.9199 15.9783L85.9208 15.9765C86.0486 15.7122 86.176 15.4488 86.3026 15.1864L86.3151 15.1606C86.5739 14.6278 86.8298 14.101 87.0811 13.5757C87.2069 13.317 87.3317 13.0592 87.4561 12.8023L87.4625 12.7892C87.5894 12.527 87.7159 12.2657 87.8425 12.0053C88.6704 11.9047 89.5068 11.8068 90.3475 11.7121C91.1965 11.6166 92.0503 11.5278 92.9125 11.4418C93.7789 11.3554 94.6582 11.2749 95.5419 11.1976C96.4339 11.1196 97.3305 11.0482 98.2399 10.9793C97.948 11.5731 97.6562 12.1669 97.3612 12.7717C97.208 13.0837 97.0548 13.3967 96.9012 13.7106C96.7553 14.0089 96.6089 14.3081 96.4616 14.6082L96.4619 14.6117L96.1479 15.2526L96.1446 15.2594C95.944 15.6692 95.7424 16.0811 95.5375 16.4964L94.5899 18.4299C95.4559 18.4563 96.3226 18.4896 97.1981 18.5293C98.084 18.5718 98.9743 18.6175 99.8741 18.6764C100.782 18.7311 101.695 18.796 102.616 18.8707C103.547 18.9446 104.486 19.0284 105.43 19.1187L104.243 21.5138L104.242 21.5162L104.233 21.5346C103.864 22.2797 103.492 23.0315 103.113 23.7902C102.715 24.5945 102.31 25.4101 101.902 26.2295L100.655 28.7423C101.541 28.9719 102.432 29.215 103.328 29.4719C104.233 29.7316 105.143 30.0014 106.059 30.2849C106.982 30.5712 107.912 30.8747 108.851 31.1879C109.797 31.5071 110.749 31.8399 111.706 32.1898L111.863 31.8775C112.314 30.9842 112.759 30.1021 113.198 29.2262C113.48 28.6657 113.761 28.1089 114.04 27.5558L114.042 27.5515L114.046 27.5437L114.053 27.5303C114.251 27.1373 114.449 26.7461 114.645 26.3569L115.208 25.2399L115.209 25.2375L115.232 25.191L115.235 25.1852C115.507 24.6452 115.777 24.1089 116.046 23.5763C116.331 23.007 116.617 22.4419 116.9 21.8802C117.069 21.5458 117.238 21.2127 117.405 20.8806C118.467 21.0948 119.535 21.3191 120.608 21.557C121.697 21.797 122.788 22.0511 123.893 22.3215C125.01 22.5944 126.133 22.881 127.265 23.1843C128.414 23.4897 129.573 23.8119 130.742 24.1509C130.341 24.9301 129.939 25.7171 129.533 26.5108L129.104 27.3511C128.545 28.4413 127.979 29.5462 127.409 30.6586C127.008 31.4463 126.601 32.2396 126.191 33.0383L125.007 35.3493C124.62 36.1052 124.229 36.8676 123.837 37.6345C124.919 38.2016 125.999 38.7935 127.082 39.4133C128.185 40.0439 129.29 40.7026 130.394 41.3862C131.515 42.0823 132.639 42.8065 133.765 43.5622C134.909 44.3269 136.055 45.1232 137.2 45.9479C136.427 47.4275 135.643 48.9292 134.852 50.4492C134.452 51.2136 134.05 51.9843 133.646 52.7601C133.236 53.5459 132.824 54.3369 132.408 55.1318C131.571 56.737 130.723 58.3608 129.861 60.0106C129.449 60.8004 129.033 61.5953 128.615 62.3955L128.607 62.4111C128.142 63.2995 127.674 64.1945 127.204 65.0966C126.253 63.9337 125.297 62.8101 124.337 61.7223C123.394 60.654 122.446 59.6214 121.489 58.625L121.494 58.6281C120.555 57.6478 119.615 56.7028 118.665 55.7905C117.734 54.895 116.798 54.0352 115.857 53.2042C115.136 54.6111 114.407 56.0327 113.669 57.4764C113.324 58.1491 112.978 58.8257 112.629 59.5065C112.22 60.3068 111.807 61.113 111.391 61.9257C110.971 62.7464 110.548 63.5736 110.121 64.4066C109.756 65.1189 109.389 65.8355 109.021 66.556C108.207 68.1415 107.382 69.7491 106.548 71.3824C105.822 70.2775 105.09 69.2049 104.349 68.1649C103.622 67.1448 102.885 66.1538 102.142 65.1951C101.414 64.2528 100.676 63.3432 99.9316 62.4622C99.2016 61.5977 98.4617 60.7624 97.716 59.9557C98.14 59.1129 98.5613 58.2774 98.9788 57.4495L100.203 55.0217C100.672 54.091 101.137 53.1677 101.598 52.2563C101.941 51.5739 102.283 50.896 102.622 50.2226C102.894 49.6827 103.165 49.1457 103.433 48.6117C103.801 47.8817 104.167 47.1558 104.53 46.4358L104.532 46.4313L105.205 45.0963C106.078 45.6588 106.954 46.2423 107.823 46.8546C108.706 47.4728 109.591 48.119 110.469 48.7869L110.473 48.7831C111.369 49.4601 112.259 50.1658 113.151 50.8961C114.056 51.6386 114.959 52.406 115.856 53.1985C116.339 52.2551 116.818 51.3201 117.294 50.3936L117.963 49.0887C118.649 47.7508 119.325 46.4315 119.99 45.1273C120.3 44.5193 120.609 43.9152 120.917 43.3149L120.923 43.3037L120.923 43.3021C121.266 42.6336 121.606 41.9698 121.942 41.3102C122.216 40.7756 122.488 40.2439 122.759 39.7148L122.763 39.7078C123.119 39.0107 123.474 38.3183 123.827 37.6306C122.781 37.0923 121.736 36.5715 120.697 36.0746C119.672 35.5819 118.65 35.1101 117.636 34.6551L117.632 34.6555C116.632 34.2064 115.634 33.7784 114.637 33.3644C113.658 32.9564 112.681 32.5694 111.708 32.1925C111.256 33.0942 110.797 34.002 110.333 34.9209L110.163 35.256L109.5 36.5737C109.191 37.1868 108.88 37.8036 108.568 38.4242C108.243 39.0717 107.915 39.7219 107.585 40.3772C107.363 40.8167 107.141 41.2585 106.917 41.7032C106.352 42.8221 105.784 43.952 105.209 45.0965C104.354 44.5571 103.505 44.0384 102.658 43.5371C101.819 43.0422 100.987 42.5679 100.155 42.1076C99.3332 41.6571 98.5122 41.2206 97.6924 40.7981C96.8856 40.3816 96.0762 39.9829 95.2681 39.5983C95.4691 39.1924 95.6697 38.789 95.8694 38.3875L95.8721 38.382C96.1434 37.8364 96.413 37.2941 96.68 36.7532L96.8703 36.3697L96.8725 36.3652L96.8739 36.3624C97.2687 35.5664 97.6587 34.7803 98.0459 33.9969L98.0465 34.0039C98.4587 33.1742 98.8646 32.354 99.2673 31.5403Z" fill="white" fill-opacity="0.06"/>
<path d="M119.994 15.7331C119.695 16.3319 119.391 16.9329 119.085 17.5384L118.717 18.2664C118.466 18.7639 118.214 19.265 117.96 19.7699L117.4 20.8807C116.352 20.6865 115.317 20.5052 114.288 20.3341C113.271 20.1654 112.263 20.01 111.26 19.8612C110.27 19.7149 109.285 19.5822 108.309 19.4593C107.342 19.3356 106.383 19.2224 105.43 19.1187C105.803 18.366 106.173 17.62 106.539 16.882C106.707 16.5424 106.875 16.2036 107.042 15.8664L107.043 15.8637C107.235 15.4763 107.426 15.0909 107.616 14.7087C107.794 14.3479 107.973 13.989 108.15 13.6319L108.162 13.6088L108.164 13.6044C108.332 13.2663 108.5 12.9289 108.665 12.5942C109.008 11.9061 109.343 11.2291 109.678 10.5521L109.68 10.5475L109.685 10.5379C108.683 10.5517 107.694 10.5714 106.714 10.5973C105.738 10.6226 104.772 10.6542 103.814 10.6921C102.865 10.7293 101.925 10.7727 100.993 10.8225C100.069 10.8715 99.1506 10.9272 98.2404 10.9856C98.3801 10.7015 98.5189 10.4182 98.6573 10.1359L98.6578 10.1347C98.8049 9.83464 98.9514 9.53556 99.0981 9.23741C99.2088 9.01238 99.3189 8.78741 99.4286 8.5631C99.5977 8.21772 99.7662 7.87334 99.9347 7.53341C100.209 6.9729 100.479 6.41975 100.75 5.8701L100.956 5.44978L100.957 5.44698C101.155 5.04386 101.352 4.64276 101.544 4.24398C102.493 4.11151 103.451 3.98183 104.413 3.85529C105.388 3.72767 106.367 3.6067 107.359 3.49165C108.36 3.37238 109.369 3.2594 110.39 3.14885C111.42 3.03757 112.463 2.93223 113.515 2.83316C113.238 3.39251 112.959 3.95507 112.676 4.52353L112.675 4.52491L112.596 4.68556C112.383 5.11091 112.171 5.53948 111.957 5.97029L111.954 5.97589L111.953 5.97871L111.952 5.98012L111.652 6.58601L111.656 6.58215C111.547 6.80121 111.438 7.02068 111.329 7.24072L111.318 7.26353C111.11 7.68459 110.9 8.10775 110.687 8.53416L109.696 10.5352C110.703 10.5316 111.719 10.5378 112.74 10.5505C113.777 10.5622 114.822 10.5837 115.877 10.6114C116.943 10.6381 118.02 10.6781 119.104 10.7209C120.202 10.7661 121.312 10.8207 122.432 10.8851C122.088 11.5696 121.739 12.2626 121.387 12.9616L121.229 13.2742C120.82 14.0866 120.407 14.9063 119.99 15.7335L119.994 15.7331Z" fill="white" fill-opacity="0.06"/>
<path d="M134.353 25.279C135.581 25.6833 136.815 26.1084 138.055 26.5576L138.055 26.5506C139.312 27.0054 140.58 27.4839 141.85 27.9835C143.141 28.4918 144.438 29.0243 145.742 29.5774C146.183 28.7394 146.617 27.9067 147.049 27.0801L147.05 27.0769C147.264 26.6672 147.477 26.259 147.69 25.8524C148.061 25.1378 148.432 24.4283 148.8 23.7238C149.057 23.2326 149.313 22.7434 149.566 22.2572C149.92 21.5763 150.274 20.9003 150.624 20.2292L150.64 20.1993C150.888 19.725 151.134 19.2533 151.379 18.7841C151.967 17.6524 152.549 16.5355 153.127 15.4295C151.682 15.1041 150.251 14.7916 148.834 14.4991C147.438 14.2117 146.055 13.9408 144.687 13.6829C143.339 13.4301 142.001 13.1942 140.673 12.9715C139.367 12.7541 138.065 12.5469 136.777 12.3561C137.179 11.575 137.574 10.802 137.967 10.0347L138.17 9.63893C138.352 9.28462 138.532 8.93209 138.711 8.58131C138.983 8.05034 139.253 7.52338 139.521 7.00037L139.526 7.00351C139.846 6.37418 140.167 5.74859 140.485 5.12839L140.835 4.44634C141.033 4.05938 141.23 3.67408 141.425 3.29036L141.43 3.28198C141.655 2.84046 141.88 2.40061 142.104 1.96318C140.759 1.92905 139.428 1.90786 138.114 1.89224C136.816 1.87868 135.531 1.87105 134.26 1.87635C133.006 1.88021 131.764 1.8935 130.532 1.91308C129.316 1.93473 128.109 1.96266 126.915 1.99652C126.759 2.3059 126.602 2.61746 126.445 2.93054C126.245 3.3274 126.043 3.72671 125.842 4.12711C125.475 4.85111 125.108 5.57861 124.737 6.31699C124.573 6.64354 124.407 6.97227 124.24 7.30251C124.028 7.72288 123.814 8.14572 123.601 8.56965C123.432 8.90559 123.261 9.24369 123.09 9.58332L123.087 9.58868C122.87 10.02 122.651 10.4538 122.433 10.8886C123.566 10.9659 124.709 11.0531 125.86 11.15C127.024 11.2494 128.202 11.3616 129.385 11.4806C130.584 11.6016 131.797 11.7355 133.019 11.8792C134.261 12.0281 135.509 12.1871 136.774 12.3586L136.568 12.763C136.162 13.5568 135.754 14.3564 135.34 15.1642C134.848 16.118 134.352 17.0861 133.854 18.0616C133.548 18.6569 133.242 19.2562 132.934 19.8595C132.731 20.2562 132.527 20.6546 132.322 21.0548C132.005 21.6729 131.686 22.2949 131.366 22.921C131.157 23.3283 130.948 23.7373 130.737 24.148C131.937 24.5055 133.141 24.8801 134.353 25.279Z" fill="white" fill-opacity="0.06"/>
<path d="M85.7752 26.1081C86.557 26.1915 87.3395 26.2819 88.1269 26.3824C88.9226 26.4822 89.7274 26.5919 90.5329 26.7085L85.9991 35.9581C85.2578 35.7229 84.5175 35.4982 83.7781 35.284C83.0513 35.0723 82.3252 34.8675 81.6002 34.6768C80.8835 34.4853 80.1718 34.304 79.4611 34.1332C78.7585 33.9617 78.0569 33.8007 77.36 33.6464C77.6841 32.9797 78.0047 32.3167 78.322 31.6603L78.3598 31.5822C78.5243 31.2419 78.6889 30.9026 78.8531 30.5642L78.8586 30.5528C79.0181 30.2241 79.1771 29.8964 79.3352 29.5695L79.3684 29.5007C79.6763 28.8644 79.9809 28.2348 80.2819 27.6088C80.5829 26.9909 80.8803 26.3766 81.1745 25.769L81.2083 25.6993C81.9586 25.7536 82.7095 25.815 83.4692 25.8827C84.2331 25.95 85.0019 26.0275 85.7714 26.1119L85.7752 26.1081Z" fill="white" fill-opacity="0.06"/>
<path d="M92.8866 38.557C92.108 38.2262 91.3306 37.9095 90.5545 37.6067L90.5542 37.6032C89.7906 37.3029 89.0239 37.0135 88.2626 36.7377C87.5097 36.4647 86.7581 36.2057 86.0071 35.9537C85.6069 36.7759 85.2028 37.6019 84.7915 38.4392C84.3766 39.2838 83.9583 40.1358 83.5368 40.9987C83.2399 41.601 82.9433 42.2067 82.6443 42.8171L82.2433 43.6357C81.8516 44.4382 81.457 45.2439 81.0571 46.0603L80.9116 46.3573C81.5882 46.7534 82.2582 47.1678 82.9332 47.5924C83.6129 48.0235 84.2938 48.4687 84.9763 48.9315C85.6632 49.3973 86.3516 49.8807 87.0415 50.3816C87.7359 50.8856 88.4362 51.4103 89.1339 51.9529C89.3723 51.4728 89.6092 50.9948 89.8451 50.519C90.1459 49.9124 90.4449 49.3092 90.743 48.7094C90.9907 48.2111 91.2368 47.7145 91.4817 47.2203L91.4859 47.2118C91.7583 46.6621 92.0291 46.1155 92.2992 45.5728C92.5848 44.9971 92.8693 44.4249 93.1521 43.8561C93.3714 43.4151 93.5897 42.9762 93.8066 42.5394C94.2599 41.6303 94.7068 40.7278 95.1478 39.8373L95.1561 39.8205L95.2643 39.6021C94.4703 39.2374 93.6778 38.8902 92.8866 38.557Z" fill="white" fill-opacity="0.06"/>
<path d="M93.3201 5.58831C94.2009 5.43006 95.0902 5.27461 95.9881 5.12193L95.984 5.12229C96.89 4.9689 97.8008 4.82215 98.7239 4.67433C99.6515 4.52964 100.591 4.38388 101.54 4.24441L102.317 2.65862C102.573 2.13844 102.827 1.62211 103.076 1.10966C103.19 0.877071 103.303 0.645292 103.416 0.414284L103.439 0.367264C103.565 0.108566 103.691 -0.149167 103.817 -0.40598L103.821 -0.414071L103.822 -0.415965L103.823 -0.418041C104.064 -0.908244 104.304 -1.39842 104.541 -1.88479C103.556 -1.68217 102.584 -1.47712 101.625 -1.26965C100.67 -1.06254 99.7273 -0.853004 98.7929 -0.644189C97.8627 -0.435733 96.9451 -0.224851 96.036 -0.0111862C95.1307 0.198616 94.2384 0.414344 93.3502 0.629715C93.2438 0.849577 93.1375 1.07034 93.0308 1.29204C92.9263 1.50891 92.8214 1.72668 92.7156 1.9454C92.502 2.3912 92.2845 2.84087 92.0671 3.29054L92.0636 3.29773C91.8438 3.75237 91.624 4.20703 91.4004 4.66551C91.2905 4.89288 91.1798 5.12117 91.0685 5.35034C90.9526 5.58927 90.8361 5.82915 90.7198 6.06994C91.5794 5.90649 92.4434 5.74619 93.3201 5.58831Z" fill="white" fill-opacity="0.06"/>
<path d="M146.248 2.13349C147.662 2.2004 149.09 2.28024 150.531 2.37301L150.523 2.37023C151.984 2.46121 153.46 2.56862 154.957 2.68474C156.475 2.80607 158.011 2.93647 159.569 3.08259C159.851 2.54021 160.132 2.0024 160.411 1.46797L160.464 1.3667C160.662 0.9878 160.859 0.610558 161.055 0.234558C161.329 -0.289447 161.601 -0.810991 161.871 -1.32952L161.911 -1.4048L161.912 -1.40671C162.107 -1.78104 162.301 -2.15379 162.495 -2.52473C162.923 -3.34037 163.345 -4.14966 163.764 -4.95285L164.395 -6.16137C164.681 -6.71053 164.965 -7.25527 165.248 -7.79565C163.596 -7.78529 161.974 -7.77044 160.369 -7.74302C158.79 -7.71426 157.231 -7.68028 155.69 -7.63723C154.169 -7.59598 152.671 -7.54252 151.185 -7.48313C149.72 -7.42204 148.267 -7.35852 146.833 -7.28242C146.462 -6.55106 146.083 -5.81197 145.701 -5.06901C145.337 -4.34917 144.965 -3.62547 144.59 -2.89517L144.537 -2.79281C144.316 -2.36053 144.093 -1.92485 143.869 -1.48698L143.826 -1.40224C143.664 -1.08576 143.501 -0.768175 143.338 -0.449963L143.149 -0.0801504C142.804 0.593279 142.457 1.2724 142.104 1.95954C143.475 2.00902 144.855 2.06479 146.248 2.13349Z" fill="white" fill-opacity="0.06"/>
<path d="M156.459 9.05544C156.991 8.03465 157.519 7.02123 158.041 6.02254L158.301 5.52391C158.73 4.70315 159.154 3.89178 159.573 3.08576C161.177 3.24194 162.791 3.41841 164.423 3.61096C166.081 3.80837 167.752 4.02221 169.442 4.25562C171.157 4.49389 172.889 4.74823 174.641 5.02566C176.422 5.30757 178.22 5.60557 180.034 5.927C179.411 7.0969 178.781 8.27803 178.14 9.47425C177.865 9.99139 177.588 10.5107 177.31 11.0325L177.308 11.0355C176.935 11.7341 176.56 12.438 176.184 13.1471C175.715 14.0246 175.242 14.9111 174.766 15.8042L174.156 16.9497C173.462 18.2494 172.761 19.5638 172.053 20.893C170.388 20.3256 168.738 19.7852 167.098 19.272C165.488 18.7669 163.889 18.2856 162.3 17.828C160.741 17.3785 159.188 16.9566 157.649 16.5547C156.136 16.1611 154.629 15.7917 153.132 15.4425L153.703 14.3495L153.704 14.3477C154.08 13.6258 154.454 12.9098 154.824 12.1988C155.134 11.6027 155.443 11.0112 155.75 10.4231C155.987 9.96777 156.224 9.51427 156.459 9.06245L156.459 9.05544Z" fill="white" fill-opacity="0.06"/>
<path d="M117.532 93.0622C118.248 94.9127 118.946 96.8214 119.623 98.7883L119.627 98.7914C120.317 100.807 120.988 102.887 121.639 105.029C122.308 107.223 122.953 109.486 123.579 111.813C124.835 109.461 126.069 107.146 127.286 104.864L127.76 103.975C128.972 101.705 130.164 99.469 131.338 97.2656L132.852 94.4229C133.75 92.7383 134.637 91.0727 135.516 89.4274C136.149 88.2386 136.778 87.0607 137.401 85.8927L137.418 85.8597C137.99 84.7872 138.558 83.723 139.12 82.6665C138.142 80.9519 137.152 79.2877 136.149 77.6775C135.167 76.1044 134.176 74.578 133.173 73.1055C132.189 71.6631 131.198 70.2673 130.194 68.922C129.213 67.6029 128.219 66.3308 127.213 65.1022C126.623 66.2295 126.029 67.369 125.429 68.5188C125.102 69.1462 124.773 69.7767 124.442 70.41C123.833 71.5754 123.219 72.753 122.598 73.9417L121.548 75.9545C121.127 76.7595 120.704 77.5705 120.278 78.3868L120.26 78.4223C119.686 79.5223 119.107 80.6322 118.522 81.7506C117.739 83.2557 116.943 84.78 116.138 86.3219L115.358 87.8163C116.102 89.5091 116.827 91.2565 117.532 93.0622Z" fill="white" fill-opacity="0.06"/>
<path d="M141.635 37.4581C141.966 36.8236 142.295 36.1931 142.623 35.5663L142.629 35.5536C142.998 34.8474 143.365 34.1459 143.728 33.4486C144.152 32.6362 144.571 31.831 144.987 31.0321L145.742 29.5836C147.11 30.1629 148.481 30.7737 149.854 31.4125C151.252 32.0632 152.658 32.7415 154.062 33.4517C155.496 34.1769 156.933 34.9302 158.377 35.7181C159.847 36.5214 161.324 37.3558 162.808 38.2214C161.972 39.7912 161.126 41.3796 160.264 42.9905C159.392 44.6234 158.51 46.2785 157.617 47.9591C157.227 48.6918 156.834 49.428 156.439 50.1686L156.36 50.3159C155.862 51.2483 155.361 52.1876 154.856 53.1355L154.521 53.7644C153.683 55.3342 152.834 56.9241 151.978 58.5339C150.718 57.2922 149.457 56.0928 148.196 54.9359C146.958 53.8017 145.719 52.7064 144.476 51.6539C143.259 50.6202 142.037 49.6258 140.814 48.6667C139.613 47.7269 138.412 46.8225 137.205 45.9573L137.843 44.7348C138.388 43.6902 138.928 42.6552 139.465 41.6296C139.91 40.7774 140.352 39.932 140.79 39.0926L141.64 37.4647L141.635 37.4581Z" fill="white" fill-opacity="0.06"/>
<path d="M66.8655 29.8101L66.8824 29.7748C67.0169 29.4946 67.151 29.2153 67.2851 28.9368C67.4209 28.6549 67.5557 28.3731 67.6901 28.0922L67.6907 28.0909L67.6952 28.0814C67.8297 27.8004 67.9636 27.5203 68.0978 27.2419C68.3003 26.8247 68.4984 26.4098 68.6955 25.997L68.8929 25.5839C68.1978 25.5918 67.5112 25.6024 66.8249 25.6166C66.143 25.6339 65.4696 25.654 64.7966 25.6776C64.1323 25.7039 63.4673 25.7303 62.8077 25.7633C62.152 25.7959 61.5007 25.8317 60.8539 25.8707L60.6272 26.349C60.4752 26.67 60.3227 26.9921 60.1684 27.3144L59.4689 28.7875C59.2349 29.2845 58.9974 29.7889 58.7557 30.2936L58.0248 31.8331C58.6402 31.8604 59.2561 31.8948 59.8727 31.9361C60.4932 31.9736 61.1186 32.0213 61.7485 32.0721C62.3824 32.1225 63.017 32.18 63.6563 32.2441C64.3038 32.3074 64.9476 32.3747 65.6004 32.4517C65.7422 32.1531 65.885 31.8554 66.0275 31.5585L66.0284 31.5566C66.1702 31.261 66.3118 30.9659 66.4512 30.6723C66.5899 30.3843 66.7281 30.0963 66.8655 29.8101Z" fill="white" fill-opacity="0.06"/>
<path d="M47.0881 38.683L46.8829 39.1185C46.7931 39.3076 46.7041 39.4973 46.615 39.6874C46.4957 39.9415 46.3762 40.1963 46.254 40.4513C45.6793 40.4628 45.1049 40.4777 44.5352 40.4993C43.9837 40.5166 43.4329 40.5405 42.8859 40.5643L42.8429 40.5662C42.2863 40.5902 41.7302 40.6212 41.1742 40.6522C40.6282 40.6825 40.0856 40.7194 39.5482 40.7559L39.5296 40.7572C39.6024 40.6021 39.6747 40.447 39.7467 40.2922C39.8542 40.0615 39.9617 39.8306 40.0705 39.6015C40.2485 39.2224 40.4266 38.8432 40.6008 38.4679C40.6865 38.2834 40.7722 38.0998 40.8575 37.917C40.9458 37.728 41.0336 37.54 41.1204 37.3529C41.2912 36.985 41.4622 36.6205 41.6333 36.2561C42.2051 36.1637 42.7813 36.0745 43.3578 35.9888C43.9384 35.9027 44.5231 35.8162 45.1081 35.7333C45.6973 35.65 46.2908 35.5698 46.8888 35.4928C47.4867 35.4158 48.0929 35.338 48.6997 35.2673C48.6015 35.4762 48.5024 35.6861 48.4028 35.8969C48.304 36.1058 48.2049 36.3157 48.1058 36.5265C47.9067 36.9498 47.7042 37.3805 47.5013 37.8077L47.4975 37.8116C47.3632 38.1001 47.227 38.3887 47.0903 38.6784L47.0889 38.6813L47.0881 38.683Z" fill="white" fill-opacity="0.06"/>
<path d="M60.0565 6.35786C60.1174 6.22828 60.1782 6.09894 60.2396 5.96954L60.2393 5.96604C60.3891 5.64231 60.5392 5.32208 60.6896 5.00535C60.7773 4.8156 60.8666 4.62698 60.9557 4.43888C61.0152 4.31338 61.0745 4.18811 61.1331 4.06289C60.9049 4.14549 60.6771 4.22767 60.4498 4.30968L60.4163 4.32176C59.9629 4.48529 59.5113 4.64819 59.0615 4.81244C58.3793 5.06273 57.7012 5.31267 57.0272 5.56225C56.3574 5.81146 55.6916 6.06032 55.0302 6.31232C54.3727 6.56046 53.7196 6.81174 53.0705 7.06267C52.9854 7.24754 52.8984 7.43258 52.8109 7.61868L52.5418 8.19199L52.5411 8.19339L52.5405 8.19468L52.5393 8.19725L52.5378 8.20034C52.4499 8.38728 52.3616 8.57526 52.275 8.76307L51.8667 9.63537C51.8 9.77779 51.7334 9.92105 51.6664 10.0652C51.5967 10.2153 51.5264 10.3664 51.4552 10.5185C52.0864 10.3009 52.7259 10.0826 53.3656 9.86782C54.0095 9.65264 54.6575 9.43711 55.3096 9.22122C55.5481 9.14391 55.7872 9.06609 56.0268 8.98809L56.0286 8.98751C56.4478 8.85107 56.8685 8.7141 57.2911 8.57839C57.9599 8.36457 58.6329 8.15038 59.3102 7.93934C59.3868 7.77602 59.4635 7.61355 59.5398 7.45194L59.5442 7.44244C59.6229 7.27579 59.7011 7.11007 59.7783 6.94532C59.8727 6.74889 59.9643 6.55398 60.0557 6.35959L60.0565 6.35786Z" fill="white" fill-opacity="0.06"/>
<path fill-rule="evenodd" clip-rule="evenodd" d="M40.9798 27.365C41.5508 27.2162 42.1221 27.0709 42.6975 26.9253C43.277 26.7793 43.8568 26.6368 44.4407 26.4939C45.0288 26.3507 45.6171 26.211 46.2137 26.0705C46.0571 26.4085 45.8967 26.7504 45.7364 27.0923L45.7357 27.0936C45.672 27.2313 45.6075 27.3689 45.543 27.5068L45.5415 27.5101C45.4443 27.7176 45.3469 27.9258 45.2511 28.135C45.2421 28.1567 45.2313 28.1786 45.22 28.2016L45.2104 28.2211L45.2022 28.2381C45.1857 28.2395 45.1693 28.241 45.1532 28.2459C45.1696 28.2445 45.186 28.2431 45.2022 28.2381C45.1122 28.4276 45.0238 28.6182 44.9352 28.8094C44.8756 28.9377 44.816 29.0663 44.7557 29.1949C44.5882 29.552 44.4206 29.9091 44.2536 30.2731C44.1841 30.2827 44.1148 30.2959 44.0455 30.309C44.0109 30.3155 43.9762 30.3212 43.9415 30.3269C43.9068 30.3326 43.8721 30.3383 43.8374 30.3448C43.7679 30.3544 43.6986 30.3676 43.6293 30.3807C43.5947 30.3872 43.56 30.3929 43.5253 30.3986L43.484 30.4054L43.4614 30.4093L43.4212 30.4165L43.3595 30.4269C43.1142 30.4679 42.8659 30.5094 42.6214 30.5536C42.4818 30.5769 42.3422 30.6013 42.2032 30.6255C42.0786 30.6472 41.9531 30.6691 41.8299 30.6899C41.6994 30.7137 41.5678 30.7366 41.4363 30.7596C41.3047 30.7826 41.1731 30.8056 41.0427 30.8294L40.2599 30.972L40.1777 30.9791C40.0677 30.9994 39.9535 31.0199 39.8434 31.0402L39.5091 31.1012C39.5019 31.1018 39.4952 31.1028 39.4887 31.1041C39.4825 31.1054 39.4764 31.1068 39.4701 31.1085L39.4522 31.1132C39.4054 31.1226 39.3595 31.131 39.3136 31.1395C39.2678 31.1479 39.2219 31.1563 39.1752 31.1657L39.1704 31.1666C39.0623 31.1865 38.9531 31.2065 38.8412 31.2302L38.5274 31.2894C38.4215 31.3093 38.3196 31.3288 38.214 31.3521C38.108 31.372 38.0062 31.3915 37.9006 31.4149L37.8711 31.4205C37.7784 31.4382 37.683 31.4564 37.5912 31.4772C37.6645 31.3208 37.7368 31.1644 37.8091 31.0081L37.8096 31.0069L37.8102 31.0057C37.8821 30.8501 37.954 30.6946 38.0269 30.539C38.1696 30.2302 38.3126 29.9208 38.4555 29.6155C38.5975 29.3125 38.7356 29.0133 38.8738 28.7141L38.875 28.7114L38.8772 28.7067C38.945 28.56 39.0128 28.4141 39.0802 28.269L39.0823 28.2646C39.1528 28.113 39.2228 27.9623 39.2919 27.8127C39.8543 27.6611 40.4171 27.513 40.9842 27.3681L40.9798 27.365ZM44.7749 28.3178L44.7207 28.3285C44.6744 28.3377 44.6276 28.347 44.5802 28.3559C44.6776 28.338 44.7754 28.3197 44.8761 28.2984L44.8252 28.308L44.7749 28.3178Z" fill="white" fill-opacity="0.06"/>
<path d="M45.206 28.2346C45.3119 28.2147 45.4179 28.1949 45.5279 28.1747C45.422 28.1945 45.316 28.2144 45.206 28.2346Z" fill="white" fill-opacity="0.06"/>
<path d="M50.16 30.4465C50.0359 30.7115 49.9114 30.9775 49.785 31.2437L49.7806 31.2406L49.5896 31.6479L49.5888 31.6496C49.4639 31.9162 49.3386 32.1839 49.2114 32.4517L49.0209 32.8578C48.8922 33.1327 48.7629 33.4087 48.6317 33.6849C49.2388 33.6177 49.846 33.5505 50.4616 33.486C51.0813 33.4212 51.7011 33.3564 52.3258 33.3017C52.9544 33.2432 53.5874 33.1878 54.2207 33.136C54.8556 33.0839 55.4911 33.0387 56.1305 32.9933L56.1506 32.9918C56.3786 32.5201 56.6024 32.0487 56.8224 31.5811C56.933 31.3482 57.0437 31.1161 57.154 30.885L57.1601 30.8722C57.2674 30.6472 57.3743 30.4231 57.4803 30.1999L58.1238 28.8446C58.3333 28.3991 58.5432 27.9572 58.7533 27.5187C58.075 27.624 57.4008 27.7288 56.7313 27.8404C56.0656 27.948 55.4046 28.0623 54.7477 28.1763C54.095 28.2898 53.4466 28.4066 52.8027 28.5264C52.1626 28.6424 51.5231 28.7655 50.8918 28.8878L50.7079 29.2803C50.5874 29.5377 50.4664 29.7961 50.3436 30.0547L50.16 30.4465Z" fill="white" fill-opacity="0.06"/>
<path d="M59.0646 21.657C59.028 21.6638 58.9913 21.6705 58.9549 21.6807L58.8448 21.701L58.7626 21.7082C58.3148 21.7968 57.8672 21.8889 57.4197 21.981C56.9763 22.0727 56.5328 22.1644 56.0938 22.2593C55.6548 22.3542 55.2199 22.4487 54.785 22.5433C54.3501 22.6378 53.9196 22.7355 53.4932 22.8328C53.3591 22.8621 53.2291 22.8912 53.0994 22.9237L53.053 22.934C52.9376 22.9597 52.8199 22.986 52.7056 23.0146C52.6406 23.0291 52.5746 23.0446 52.5086 23.0601C52.4427 23.0756 52.3768 23.091 52.3118 23.1055C52.2468 23.1201 52.1819 23.1354 52.117 23.1508C52.0521 23.1662 51.9871 23.1816 51.9221 23.1961C52.0789 22.8577 52.236 22.5227 52.3934 22.1912C52.4926 21.9769 52.5935 21.7624 52.694 21.5489L52.7023 21.5313L52.8576 21.2011C52.9357 21.0346 53.0127 20.8691 53.0893 20.7046L53.0901 20.703C53.164 20.5443 53.2375 20.3865 53.311 20.2295C53.4611 19.9093 53.6112 19.5891 53.7575 19.2727C54.3712 19.0919 54.9894 18.9143 55.6158 18.736C56.2421 18.5576 56.8685 18.3793 57.5034 18.2037C58.1383 18.0282 58.7815 17.8519 59.4249 17.6791C60.0724 17.506 60.7241 17.3325 61.3799 17.1586C61.2126 17.5192 61.0412 17.8801 60.8698 18.241C60.7843 18.4232 60.6979 18.6063 60.611 18.7904L60.6095 18.7935C60.5231 18.9766 60.4362 19.1606 60.3493 19.3455L60.1722 19.7219L60.1706 19.7252L60.1685 19.7296C60.0528 19.9752 59.9366 20.2218 59.8221 20.4683L59.6409 20.8533C59.5218 21.1059 59.4022 21.3596 59.2845 21.6131C59.2478 21.6198 59.2111 21.6266 59.1747 21.6368C59.138 21.6435 59.1013 21.6503 59.065 21.6605L59.0646 21.657Z" fill="white" fill-opacity="0.06"/>
<path d="M53.5023 22.8424C53.9287 22.7451 54.3592 22.6475 54.7941 22.5529C54.579 22.6017 54.3639 22.6497 54.1487 22.6976C53.9336 22.7455 53.7174 22.7937 53.5023 22.8424Z" fill="white" fill-opacity="0.06"/>
<path d="M73.8076 17.5147C74.0425 17.0282 74.2737 16.5456 74.501 16.0668L74.5054 16.07C74.6204 15.83 74.7354 15.5908 74.85 15.3527C74.9623 15.1192 75.0742 14.8866 75.1852 14.655C75.297 14.4236 75.4079 14.1922 75.5183 13.9617C75.6294 13.7298 75.7401 13.4988 75.8509 13.2696L75.8099 13.2766C75.6557 13.3031 75.4986 13.3301 75.3452 13.3597C75.2646 13.3751 75.1849 13.3896 75.1057 13.404C75.0167 13.4202 74.9281 13.4363 74.8398 13.4533C74.7563 13.4695 74.6727 13.4847 74.5891 13.5C74.5056 13.5152 74.422 13.5305 74.3385 13.5466C74.255 13.5627 74.1714 13.578 74.0879 13.5932C74.0043 13.6085 73.9207 13.6237 73.8372 13.6399C73.5895 13.688 73.3425 13.7352 73.096 13.7824L73.0945 13.7827C72.8148 13.8362 72.5358 13.8896 72.2568 13.944C71.7315 14.0465 71.2144 14.1482 70.6976 14.2534C70.1846 14.3548 69.6719 14.4596 69.1636 14.5676C68.6553 14.6756 68.1511 14.7833 67.6511 14.8906L67.5689 14.8978C67.5486 14.9031 67.5273 14.9076 67.5059 14.9121C67.4846 14.9166 67.4632 14.9211 67.443 14.9264L67.4209 14.9318L67.4064 14.9351L67.38 14.9407C67.3587 14.9453 67.3374 14.9498 67.3171 14.9551C67.2969 14.9604 67.2755 14.9649 67.2542 14.9694C67.2328 14.9739 67.2115 14.9784 67.1912 14.9837C67.1507 14.9943 67.1061 15.0053 67.0653 15.0124C66.8763 15.4147 66.6869 15.8135 66.4942 16.2194L66.4918 16.2245L66.4889 16.2305L66.4862 16.2362L66.4851 16.2386C66.3352 16.548 66.1878 16.8592 66.0394 17.1725L65.8902 17.4873C65.7577 17.769 65.6235 18.0509 65.4887 18.3338L65.2851 18.7616C65.0785 19.1926 64.8718 19.6238 64.6658 20.0618C65.3403 19.9604 66.0234 19.8618 66.7108 19.7664C67.4024 19.6706 68.0984 19.5779 68.7989 19.4884C69.5034 19.3986 70.2126 19.3153 70.926 19.2317C71.6435 19.1478 72.3695 19.0666 73.1002 18.9921C73.2585 18.6642 73.4151 18.3364 73.5711 18.0096C73.65 17.8444 73.7288 17.6794 73.8076 17.5147Z" fill="white" fill-opacity="0.06"/>
<path d="M67.3345 11.1765L67.149 11.5681C67.0253 11.8296 66.901 12.0922 66.7749 12.355L66.5866 12.7525C66.4603 13.0194 66.3335 13.2875 66.2048 13.5557C65.4979 13.7128 64.7995 13.8727 64.1052 14.0323C63.415 14.1915 62.7293 14.3539 62.0479 14.5194C61.555 14.637 61.0646 14.7581 60.5763 14.8787C60.3936 14.9238 60.2107 14.969 60.0286 15.0137C59.364 15.1813 58.7035 15.3485 58.0474 15.5189C58.215 15.1618 58.3828 14.8083 58.5507 14.4547C58.7148 14.105 58.8789 13.7553 59.0432 13.4091C59.1635 13.1496 59.2863 12.8917 59.4081 12.636L59.5291 12.3818C59.61 12.2114 59.6898 12.0412 59.7692 11.8718L59.7707 11.8687C59.8487 11.7023 59.9263 11.5368 60.0041 11.373C60.6815 11.162 61.3633 10.9541 62.0492 10.7458C62.7391 10.5372 63.4333 10.3282 64.1318 10.1224C64.8344 9.91621 65.5412 9.70966 66.2561 9.50239C66.9752 9.29475 67.6946 9.09062 68.4266 8.88892L68.2484 9.26514L68.2459 9.27051L68.2415 9.27985L68.2391 9.28483C68.123 9.53024 68.0064 9.77666 67.888 10.0232L67.3389 11.1797L67.3345 11.1765Z" fill="white" fill-opacity="0.06"/>
<path d="M53.0385 11.7601C53.1229 11.5777 53.2071 11.3959 53.2929 11.2152L53.3012 11.2145C53.4401 10.9136 53.5794 10.6162 53.7186 10.3187L53.7196 10.3166L53.1706 10.5078C52.722 10.664 52.2762 10.8192 51.8307 10.9761C51.208 11.1964 50.5894 11.4165 49.9749 11.6361C49.3604 11.8558 48.7542 12.0747 48.1482 12.2972C47.5464 12.5192 46.9486 12.741 46.3509 12.9627C46.3034 13.0642 46.2561 13.1668 46.2085 13.2699L46.2058 13.2758C46.132 13.4358 46.0573 13.5975 45.9814 13.7575C45.8555 14.0227 45.7299 14.2913 45.6046 14.5635C45.4793 14.8357 45.354 15.1078 45.2249 15.3839C45.0958 15.6599 44.9667 15.9359 44.8379 16.2155C45.0669 16.1425 45.2959 16.069 45.5254 15.9953C45.8773 15.8823 46.2304 15.7689 46.5866 15.6566C47.0371 15.511 47.4928 15.3691 47.9515 15.2263L48.3602 15.099C48.9569 14.9127 49.558 14.7295 50.1632 14.5459C50.7684 14.3624 51.3818 14.1781 51.9956 13.9973C52.1415 13.6818 52.2876 13.3698 52.4338 13.0578L52.435 13.0552C52.5406 12.8238 52.6485 12.594 52.7555 12.3663L52.7567 12.3638L52.7577 12.3616L52.8675 12.1279C52.925 12.0051 52.9818 11.8825 53.0385 11.7601Z" fill="white" fill-opacity="0.06"/>
<path d="M33.8068 33.7637C34.3268 33.6476 34.8509 33.5312 35.3753 33.4182C35.9038 33.3049 36.4323 33.1916 36.9653 33.0815C37.4982 32.9713 38.0353 32.8608 38.5767 32.7534C38.4304 33.0698 38.2842 33.3861 38.1341 33.7064C37.9845 34.0256 37.8352 34.3482 37.6859 34.6709L37.6844 34.6741L37.5753 34.9093L37.4538 35.1703C37.3787 35.3315 37.3032 35.4935 37.2278 35.6565C37.0746 35.9874 36.9212 36.3189 36.7642 36.6536C36.2475 36.713 35.7311 36.7758 35.2192 36.8418C34.7072 36.9077 34.1994 36.9733 33.6959 37.0421C33.1925 37.1108 32.6894 37.1831 32.1904 37.255C31.6914 37.3269 31.1968 37.4019 30.7022 37.4769C30.8345 37.19 30.9668 36.9031 31.0994 36.6197C31.1887 36.4288 31.2761 36.2381 31.3631 36.0485L31.4892 35.7738C31.618 35.4942 31.7468 35.2147 31.8759 34.9386C32.005 34.6626 32.1303 34.3904 32.2553 34.1148C32.7709 33.9955 33.2868 33.8798 33.8068 33.7637Z" fill="white" fill-opacity="0.06"/>
<path d="M30.3147 49.3442C30.3908 49.1818 30.4669 49.0196 30.5424 48.8574L30.5465 48.857C30.6565 48.6178 30.7682 48.3797 30.8795 48.1422L30.881 48.1391C30.9558 47.9796 31.0305 47.8203 31.1045 47.661C31.1965 47.4631 31.2887 47.2669 31.3804 47.0717C31.4729 46.8749 31.5649 46.679 31.6559 46.4832C31.1127 46.5236 30.5695 46.5641 30.0311 46.6112C29.4964 46.6545 28.9621 46.7012 28.428 46.7515C27.8981 46.8013 27.3726 46.8544 26.8474 46.9109C26.3219 46.9639 25.8011 47.0236 25.2844 47.0829L24.8141 48.0983C24.7092 48.3276 24.6024 48.5571 24.4952 48.7876L24.3368 49.1285C24.2548 49.3033 24.1737 49.4781 24.0927 49.6528L24.0908 49.657C24.0104 49.8303 23.9301 50.0037 23.8487 50.1772C23.6849 50.5304 23.5211 50.8836 23.3536 51.2406C23.8461 51.2364 24.3386 51.2321 24.8355 51.231L24.9842 51.2317C25.4326 51.2338 25.884 51.236 26.3357 51.241C26.8373 51.2465 27.3478 51.2583 27.8542 51.2705C28.3361 51.2812 28.815 51.2984 29.2971 51.3157L29.3951 51.3192C29.5217 51.0416 29.6504 50.7668 29.7786 50.4932L29.7793 50.4915L29.7801 50.4899C29.8449 50.3516 29.9096 50.2135 29.9738 50.0755C30.0857 49.8325 30.1992 49.5905 30.3124 49.3491L30.3147 49.3442Z" fill="white" fill-opacity="0.06"/>
<path d="M51.8055 45.3453C51.6766 45.6169 51.5477 45.8894 51.4184 46.1628L51.4176 46.1644L51.3999 46.2018C51.2758 46.4641 51.1513 46.7273 51.0259 46.9914C50.8928 47.2696 50.7599 47.5496 50.6265 47.8305C50.4932 48.1112 50.3595 48.3929 50.2247 48.6746C49.6522 48.5694 49.0844 48.4708 48.5211 48.3754C47.958 48.2834 47.3994 48.1946 46.8414 48.1128C46.2875 48.0307 45.7342 47.9555 45.1853 47.8835C44.6365 47.8115 44.0923 47.7462 43.5488 47.6878C43.7755 47.2021 44.0025 46.7198 44.2298 46.241L45.55 43.4358C45.7669 42.9791 45.9799 42.5263 46.1888 42.0738C46.768 42.0655 47.3474 42.0607 47.9312 42.059C48.4884 42.0571 49.0461 42.0615 49.6073 42.0659L49.7005 42.0666C50.2976 42.0744 50.895 42.0857 51.4968 42.1001C52.103 42.1177 52.7093 42.1352 53.3205 42.1629C53.1963 42.4226 53.0722 42.684 52.9476 42.9463C52.823 43.2088 52.6979 43.4722 52.5718 43.7357C52.4461 44.0024 52.3194 44.2693 52.1923 44.537L52.1903 44.5413C52.0636 44.808 51.9366 45.0756 51.8097 45.3449L51.8055 45.3453Z" fill="white" fill-opacity="0.06"/>
<path d="M42.3178 9.73276C42.378 9.60394 42.4382 9.47513 42.4973 9.3464L42.497 9.3429L42.8528 8.58108C42.9102 8.45605 42.9686 8.33093 43.0271 8.20581C43.0855 8.08067 43.1439 7.95554 43.2013 7.8305C43.0091 7.91059 42.8172 7.99029 42.6257 8.06983L42.6222 8.07129C42.2059 8.24421 41.7915 8.41637 41.3791 8.58999C40.7756 8.84046 40.1806 9.09372 39.5857 9.34697C38.9907 9.60022 38.4039 9.85276 37.8172 10.1053C37.2306 10.3578 36.6522 10.6095 36.0738 10.8613C35.973 11.0819 35.8717 11.3027 35.7671 11.5272C35.7148 11.6394 35.6626 11.7525 35.6104 11.8656L35.6089 11.8688C35.5571 11.9808 35.5054 12.0929 35.4536 12.2041C35.4015 12.3179 35.3484 12.4317 35.2953 12.5456C35.2422 12.6596 35.1887 12.7745 35.1365 12.8884C35.0717 13.0249 35.0085 13.1625 34.945 13.3007C34.9023 13.3936 34.8595 13.4868 34.816 13.58C35.3801 13.3542 35.9486 13.1316 36.5171 12.9089C37.0899 12.6859 37.6672 12.4623 38.244 12.2388C38.825 12.015 39.4101 11.7909 39.9955 11.5702C40.5847 11.3457 41.1742 11.1247 41.772 10.903C41.856 10.7289 41.9363 10.555 42.0167 10.3812L42.0172 10.38C42.0574 10.2931 42.0976 10.2061 42.1383 10.1191C42.1974 9.99037 42.2576 9.86156 42.3178 9.73276Z" fill="white" fill-opacity="0.06"/>
<path fill-rule="evenodd" clip-rule="evenodd" d="M38.3181 23.0269L38.6625 22.2767C38.72 22.1533 38.7766 22.0301 38.8331 21.9069C38.8895 21.7841 38.9463 21.6602 39.0037 21.5373C39.1902 21.4726 39.3771 21.4074 39.5646 21.3421C39.9105 21.2215 40.2581 21.1003 40.6076 20.9805C41.1464 20.7957 41.6894 20.6105 42.2323 20.4253C42.7794 20.2398 43.3267 20.0578 43.8782 19.8754L43.8825 19.874L43.8845 19.8733C44.438 19.6913 44.9915 19.5092 45.5491 19.3268C45.5693 19.3215 45.5854 19.3166 45.6054 19.3078C45.6215 19.3028 45.6418 19.2975 45.6576 19.2891L45.6657 19.2866C45.6802 19.2823 45.6965 19.2775 45.7098 19.2704L45.7179 19.268C45.7324 19.2637 45.7487 19.2588 45.762 19.2517C45.7106 19.3632 45.6586 19.4747 45.6065 19.5865L45.6055 19.5886C45.5272 19.7564 45.4487 19.9247 45.3718 20.0942C45.2392 20.3776 45.1069 20.6645 44.9746 20.9514C44.8428 21.2374 44.7072 21.5272 44.5715 21.817L44.5702 21.8198L44.5251 21.9172L44.4804 22.0131L44.4797 22.0146C44.4491 22.08 44.4185 22.1454 44.3889 22.2099C44.351 22.2917 44.313 22.3728 44.275 22.4538L44.2738 22.4564C44.2354 22.5383 44.197 22.6202 44.1587 22.703L44.149 22.7056L44.1371 22.7089C43.586 22.8581 43.0348 23.0074 42.4878 23.1563C42.0071 23.2871 41.5329 23.42 41.0568 23.5535L40.838 23.6148C40.2923 23.7684 39.7507 23.9217 39.2136 24.0781C38.6764 24.2345 38.1433 24.3906 37.6103 24.5466L37.6112 24.5445L37.6118 24.5433C37.7295 24.2872 37.8474 24.0305 37.9655 23.7778C38.0125 23.6771 38.0589 23.5764 38.1052 23.4759L38.1061 23.4741L38.1069 23.4722C38.1767 23.3207 38.2463 23.1697 38.3175 23.0199L38.3181 23.0269ZM41.4322 23.2098C40.8933 23.3946 40.3586 23.5791 39.8283 23.7666C40.0136 23.7024 40.1993 23.6376 40.3856 23.5727L40.3886 23.5716L40.3905 23.571C40.736 23.4505 41.0831 23.3295 41.4322 23.2098Z" fill="white" fill-opacity="0.06"/>
<path d="M78.5857 6.60284C78.5709 6.60619 78.556 6.60967 78.5406 6.61372C78.4275 6.85428 78.3117 7.09507 78.1956 7.33653L78.1931 7.34184L78.1921 7.34382L78.191 7.34613L78.1898 7.3486C78.1035 7.52808 78.0171 7.70794 77.9314 7.88835L77.3079 9.18894C77.2042 9.40548 77.0994 9.62295 76.9943 9.84132L76.9884 9.85365C76.8826 10.0734 76.7763 10.294 76.6702 10.5155C76.4527 10.9652 76.2356 11.4183 76.0184 11.8715C76.7774 11.7416 77.5447 11.6109 78.3166 11.4869C79.0927 11.3625 79.877 11.2374 80.666 11.119C81.4591 11.0002 82.2604 10.8807 83.0706 10.7674C83.8849 10.6538 84.7077 10.543 85.5349 10.4354C85.6618 10.1725 85.7887 9.91045 85.9152 9.64941C86.0369 9.39816 86.1582 9.14779 86.2785 8.89835C86.3758 8.69689 86.4737 8.49536 86.5715 8.29408L86.5723 8.29244L86.5733 8.29021C86.7182 7.99201 86.8628 7.69434 87.0047 7.39816C87.1253 7.14833 87.246 6.90028 87.3664 6.65317C87.4839 6.4118 87.601 6.17133 87.7171 5.93094L87.7206 5.92366C87.9508 5.44708 88.1812 4.97014 88.4117 4.49705L88.3931 4.50101L88.3792 4.50421C88.3576 4.50924 88.3359 4.51427 88.314 4.51619C88.3031 4.51831 88.2923 4.52083 88.2815 4.52335C88.2598 4.52838 88.2382 4.53341 88.2163 4.53533C88.2054 4.53745 88.1946 4.53997 88.1838 4.54249C88.1621 4.54752 88.1404 4.55255 88.1185 4.55447C88.1077 4.55659 88.0968 4.55911 88.086 4.56163C88.0644 4.56666 88.0427 4.57169 88.0208 4.57361C87.2431 4.72636 86.4698 4.88226 85.705 5.04094C84.9443 5.19927 84.1919 5.35687 83.4438 5.51762C82.6999 5.67801 81.9604 5.84154 81.2291 6.00435C80.502 6.1668 79.7792 6.3324 79.0606 6.49763L79.0112 6.50195C78.9917 6.50743 78.971 6.51202 78.9497 6.51672C78.9312 6.5208 78.9124 6.52497 78.8936 6.52989C78.8741 6.53538 78.8533 6.53996 78.832 6.54467C78.8136 6.54874 78.7947 6.55291 78.7759 6.55783C78.7564 6.56332 78.7357 6.56791 78.7144 6.57261C78.6959 6.57669 78.677 6.58086 78.6582 6.58578C78.6449 6.58927 78.632 6.59235 78.6192 6.59528L78.5995 6.59972L78.5857 6.60284Z" fill="white" fill-opacity="0.06"/>
<path d="M71.4488 40.7853C71.276 41.1431 71.1024 41.5018 70.9279 41.8623L70.9157 41.8875C70.733 42.2649 70.5494 42.6442 70.365 43.0263C70.1927 43.3815 70.0196 43.7391 69.8458 44.0984L69.7934 44.2066C69.613 44.5797 69.4317 44.9544 69.2495 45.33C68.6139 45.0715 67.9833 44.8231 67.3536 44.5852C66.7281 44.3469 66.1079 44.1223 65.4842 43.9051C64.869 43.6906 64.2544 43.4832 63.6408 43.2862C63.0353 43.0886 62.4267 42.9018 61.8228 42.7216C62.1379 42.0622 62.4533 41.4063 62.7652 40.7578C63.0732 40.1131 63.3778 39.4758 63.6827 38.842C63.825 38.5462 63.9665 38.2513 64.1075 37.9572L64.127 37.9166L64.1285 37.9134L64.1292 37.9119L64.148 37.8727C64.2921 37.5722 64.4358 37.2726 64.5796 36.9739C64.874 36.3621 65.1646 35.7543 65.4514 35.1503C66.1048 35.2343 66.7586 35.3219 67.4171 35.416C68.08 35.5134 68.7477 35.6173 69.4159 35.7283C70.0924 35.8385 70.7698 35.9593 71.4519 36.0867C72.1382 36.2138 72.8294 36.351 73.5251 36.4913C73.3523 36.8469 73.1796 37.2043 73.006 37.5636L73.003 37.5698L72.986 37.6049C72.8242 37.9398 72.6616 38.2762 72.4973 38.6144C72.3279 38.965 72.1568 39.3174 71.9848 39.6716L71.9833 39.6746C71.8032 40.0455 71.6221 40.4184 71.4412 40.793L71.4488 40.7853Z" fill="white" fill-opacity="0.06"/>
<path d="M82.6975 22.6341L82.9911 22.0275C83.1326 21.7357 83.2731 21.4448 83.4132 21.1548L83.4154 21.1503C83.5595 20.852 83.7032 20.5547 83.8469 20.2583C84.034 19.8753 84.2177 19.4956 84.4004 19.1181C84.4956 18.9214 84.5906 18.7252 84.6856 18.5294C83.8936 18.5669 83.1102 18.6072 82.3315 18.6541C81.5569 18.7007 80.7909 18.7501 80.0295 18.8061C79.2761 18.8579 78.5233 18.9167 77.7793 18.9818C77.0392 19.043 76.3037 19.1109 75.5727 19.1819C75.3304 19.6796 75.0888 20.1843 74.8475 20.6926C74.7264 20.9455 74.6044 21.1994 74.482 21.4542L74.4772 21.4641L74.4629 21.4939C74.3438 21.7418 74.2242 21.9906 74.1048 22.2401C73.8565 22.7631 73.6044 23.2899 73.3484 23.8206L73.0953 24.3487L73.0935 24.3526L73.09 24.3597C72.9188 24.7166 72.7466 25.0757 72.5746 25.4379C73.2703 25.437 73.9708 25.4428 74.6716 25.4521C75.3806 25.4607 76.0943 25.4759 76.8086 25.4981C77.5312 25.5196 78.2541 25.5447 78.9861 25.5795C79.7222 25.6139 80.4668 25.6511 81.2124 25.6988C81.4157 25.2762 81.6194 24.8567 81.8219 24.4395L82.114 23.8374C82.3104 23.4346 82.5036 23.0352 82.6956 22.6379L82.6975 22.6341Z" fill="white" fill-opacity="0.06"/>
<path d="M21.6081 37.2175C21.153 37.3138 20.6978 37.41 20.243 37.5098C20.2899 37.4069 20.3378 37.3039 20.3857 37.2009C20.4337 37.0978 20.4816 36.9948 20.5286 36.8918C20.5755 36.7889 20.6224 36.6869 20.6694 36.5848C20.7164 36.4827 20.7634 36.3806 20.8103 36.2777C20.8574 36.1765 20.9034 36.0754 20.9495 35.9743C20.9955 35.8732 21.0415 35.7721 21.0886 35.6709C21.1336 35.5719 21.1796 35.472 21.2255 35.3721C21.2717 35.2719 21.3182 35.1708 21.3633 35.0715C21.8322 34.9387 22.3051 34.8055 22.7784 34.6759C23.2513 34.5427 23.7287 34.4127 24.206 34.2827C24.4467 34.2175 24.6875 34.1532 24.9283 34.0889C25.1691 34.0246 25.41 33.9603 25.6508 33.8951L27.1084 33.5134L26.785 34.2195C26.7485 34.2991 26.7116 34.3793 26.6745 34.4596C26.6021 34.6167 26.5292 34.7749 26.4581 34.9329C26.3465 35.1721 26.2352 35.4148 26.1239 35.6575L26.1232 35.6589C26.0121 35.9011 25.901 36.1434 25.7861 36.3895C25.3174 36.4764 24.849 36.5668 24.3806 36.6572C23.9163 36.7472 23.4524 36.8408 22.9884 36.9343C22.5288 37.0274 22.0674 37.1209 21.6081 37.2175Z" fill="white" fill-opacity="0.06"/>
<path d="M4.4719 49.6666C4.43971 49.7365 4.40753 49.8063 4.37637 49.8761L4.37606 49.8726L4.32535 49.9853L4.28065 50.0839L4.27968 50.086C4.24788 50.1561 4.21609 50.2261 4.18523 50.2952C4.15216 50.3669 4.12004 50.4377 4.08792 50.5085L4.0407 50.6123L3.9906 50.7217C4.41545 50.6069 4.8444 50.4917 5.26955 50.3804C5.41257 50.3432 5.55555 50.3056 5.69854 50.268C5.98471 50.1927 6.27089 50.1175 6.55734 50.0453L7.85427 49.7201C8.23109 49.6258 8.61124 49.5338 8.98913 49.4425L9.16003 49.4011C9.2001 49.3147 9.23914 49.2283 9.27817 49.1419C9.31721 49.0556 9.35625 48.9692 9.39632 48.8827C9.43448 48.7982 9.4736 48.7127 9.51272 48.6272C9.55184 48.5417 9.59095 48.4562 9.62912 48.3717C9.7095 48.2024 9.78578 48.0335 9.86206 47.8645L9.93154 47.7116L10.0248 47.5075L10.0915 47.3605C9.63943 47.4954 9.19176 47.6334 8.74409 47.7714C8.29643 47.9094 7.84876 48.0474 7.4055 48.1885C7.10746 48.2828 6.81305 48.3768 6.51865 48.4707L6.07575 48.612C5.63923 48.7519 5.20301 48.8954 4.76679 49.0388L4.76095 49.0407L4.75894 49.0413C4.69218 49.1778 4.62984 49.3174 4.5675 49.457C4.55267 49.4902 4.5376 49.5234 4.52242 49.5567L4.4719 49.6666Z" fill="white" fill-opacity="0.06"/>
<path d="M19.38 25.4678C19.3471 25.5412 19.3132 25.6157 19.2794 25.6901L19.2404 25.7758C19.2196 25.8216 19.199 25.8672 19.1787 25.9125C19.1439 25.9879 19.11 26.0623 19.0762 26.1367L19.0103 26.2812L18.9736 26.3611L17.5151 27.0182L17.0321 27.237C16.7098 27.3828 16.3876 27.5286 16.0691 27.6742C15.587 27.8928 15.1091 28.1111 14.6315 28.3329C14.3514 28.4609 14.0728 28.5899 13.7948 28.7187L13.793 28.7195C13.5976 28.81 13.4014 28.9009 13.2063 28.9906C13.236 28.928 13.2646 28.8646 13.2932 28.8012C13.3219 28.7378 13.3505 28.6744 13.3802 28.6118C13.4079 28.5494 13.4366 28.4869 13.4653 28.4244C13.494 28.3618 13.5227 28.2993 13.5504 28.2369C13.5867 28.1548 13.6249 28.0726 13.6626 27.9915L13.6633 27.99C13.6826 27.9482 13.702 27.9065 13.7208 27.8655C13.7762 27.7406 13.8318 27.6193 13.8913 27.494C14.1333 27.3722 14.3764 27.2512 14.6196 27.1303C14.8624 27.0094 15.1059 26.8882 15.3477 26.7665C15.6643 26.6084 15.981 26.4516 16.2987 26.2944L16.8164 26.038C17.3086 25.7937 17.8011 25.5529 18.2978 25.3118C18.7941 25.0672 19.2907 24.8261 19.7874 24.585C19.7215 24.7319 19.6554 24.8754 19.5854 25.0227C19.5525 25.0962 19.5186 25.1697 19.4846 25.2433C19.4507 25.3169 19.4167 25.3904 19.3838 25.4639L19.38 25.4678Z" fill="white" fill-opacity="0.06"/>
<path d="M11.8417 36.8521C11.872 36.7842 11.9023 36.7162 11.9336 36.6482L11.9298 36.6521C11.9609 36.5844 11.9912 36.5176 12.0214 36.4509L12.0221 36.4494C12.0524 36.3825 12.0827 36.3155 12.1139 36.2477C11.6687 36.4137 11.2197 36.5836 10.7748 36.7531C10.3299 36.9226 9.88906 37.0918 9.44446 37.2648C8.99955 37.4344 8.55905 37.607 8.11856 37.7797L7.77988 37.9133C7.4551 38.0413 7.12773 38.1703 6.80149 38.3009L6.75122 38.41C6.71793 38.482 6.68401 38.5552 6.65202 38.6281C6.60367 38.7382 6.55532 38.8484 6.50286 38.9588L6.48129 39.0062L6.45025 39.0749C6.41708 39.1483 6.38436 39.2209 6.34989 39.2934C6.32366 39.3487 6.29854 39.4047 6.27342 39.4607C6.24829 39.5168 6.22316 39.5728 6.19692 39.628L6.43876 39.5433L6.44216 39.5421C6.78893 39.4205 7.13509 39.2991 7.48312 39.1802L8.77405 38.739C9.20435 38.5919 9.63497 38.4483 10.0697 38.3044C10.5044 38.1605 10.9391 38.0165 11.3742 37.8761C11.4055 37.8081 11.4368 37.7391 11.468 37.6702C11.4993 37.6013 11.5305 37.5324 11.5618 37.4644L11.7497 37.0561C11.7811 36.988 11.8114 36.9201 11.8417 36.8521Z" fill="white" fill-opacity="0.06"/>
<path d="M24.839 31.1495C25.1083 31.0564 25.379 30.9643 25.6503 30.872L25.6522 30.8713C25.8617 30.8001 26.0729 30.7282 26.2827 30.6561C26.1959 30.8473 26.1091 31.0384 26.0184 31.2334C25.9534 31.3797 25.8859 31.5243 25.8179 31.6699L25.7504 31.8146C25.6597 32.0096 25.5691 32.2046 25.4829 32.4028L25.2119 32.9983C24.7431 33.1311 24.2784 33.2636 23.8137 33.396C23.3489 33.5284 22.8886 33.664 22.4283 33.7996C21.968 33.9352 21.5118 34.0704 21.0559 34.2091C20.6754 34.3219 20.2979 34.4369 19.9186 34.5524L19.6921 34.6214C19.7304 34.5386 19.7686 34.455 19.8069 34.3713C19.8451 34.2877 19.8834 34.204 19.9217 34.1212C19.9525 34.0547 19.9827 33.9881 20.0127 33.9219C20.0573 33.8235 20.1018 33.7252 20.1478 33.6285C20.1911 33.5297 20.2361 33.4321 20.2808 33.335C20.3108 33.2698 20.3408 33.2045 20.3701 33.1395C20.4065 33.0587 20.444 32.9777 20.4814 32.8968C20.5188 32.816 20.5563 32.7348 20.5927 32.6541C21.0585 32.4863 21.5283 32.3181 21.9982 32.1499C22.4681 31.9817 22.9424 31.8167 23.4167 31.6517C23.891 31.4866 24.3694 31.3212 24.8478 31.1558L24.839 31.1495Z" fill="white" fill-opacity="0.06"/>
<path d="M15.8641 38.3493C15.8996 38.2705 15.935 38.1916 15.9715 38.1127L15.9677 38.1166C16.0409 37.9584 16.114 37.8002 16.1834 37.6459C15.7074 37.8393 15.2314 38.0327 14.7596 38.2258C14.4704 38.3441 14.1813 38.4638 13.8932 38.583C13.7114 38.6583 13.5293 38.7336 13.3485 38.8081C13.1148 38.9062 12.8811 39.0034 12.6474 39.1006C12.4138 39.1978 12.1795 39.2952 11.9459 39.3932C11.4788 39.5893 11.0158 39.785 10.5528 39.9808C10.5233 40.0469 10.4929 40.1125 10.4634 40.1778C10.4339 40.243 10.4044 40.3082 10.375 40.3743L10.3141 40.5059L10.3134 40.5074C10.2733 40.5935 10.2328 40.6808 10.1941 40.7678C10.1646 40.834 10.1342 40.9002 10.1037 40.9664C10.0733 41.0326 10.0428 41.0988 10.0134 41.1649C9.97196 41.2522 9.93228 41.3393 9.89213 41.4275L9.8571 41.5044L9.82897 41.5658L11.1884 41.055L11.4577 40.9544C11.824 40.8176 12.1887 40.6813 12.5563 40.5471C13.0135 40.3801 13.4717 40.2128 13.933 40.0454C14.3906 39.8783 14.8564 39.7105 15.3183 39.5465C15.3547 39.4656 15.3912 39.3856 15.4278 39.3056C15.4642 39.2257 15.5007 39.1458 15.5371 39.065C15.61 38.9033 15.6831 38.7451 15.7562 38.5869C15.7928 38.5078 15.8286 38.4283 15.8641 38.3493Z" fill="white" fill-opacity="0.06"/>
<path d="M25.4284 27.7096C25.5156 27.5219 25.5989 27.3381 25.6819 27.1508C25.7236 27.059 25.7663 26.967 25.809 26.875L25.8097 26.8735C25.8521 26.782 25.8946 26.6905 25.936 26.5991C26.4363 26.4037 26.9376 26.2078 27.4382 26.0159C27.9429 25.82 28.4479 25.6275 28.9571 25.4347C29.1609 25.3575 29.3653 25.2797 29.5702 25.2018C29.877 25.085 30.1846 24.9679 30.4924 24.8521L32.0445 24.2716L32.0427 24.2753C31.946 24.4872 31.8492 24.6994 31.7484 24.9117C31.6536 25.1153 31.5621 25.3156 31.4679 25.5217L31.4492 25.5626C31.3484 25.779 31.248 25.9988 31.1475 26.2187L31.1465 26.221C31.0456 26.4416 30.9448 26.6622 30.8402 26.8867C30.3365 27.0472 29.8329 27.2078 29.3336 27.3715C28.8343 27.5316 28.3394 27.6948 27.8445 27.8581C27.3493 28.0214 26.8575 28.1846 26.3668 28.3511C25.8798 28.5137 25.3891 28.6802 24.9066 28.846C24.95 28.7504 24.9935 28.6557 25.037 28.561C25.0805 28.4663 25.124 28.3716 25.1674 28.276C25.2545 28.0884 25.3416 27.9007 25.4246 27.7134L25.4284 27.7096Z" fill="white" fill-opacity="0.06"/>
<path d="M28.832 21.3545L27.3119 22.017L27.3122 22.0205C26.8055 22.2413 26.3029 22.4618 25.8045 22.6819C25.4492 22.8413 25.0938 22.999 24.7398 23.1561L24.3135 23.3453C24.0028 23.4834 23.6922 23.6229 23.3826 23.762C23.1996 23.8442 23.0169 23.9262 22.8348 24.0077L22.6246 24.4629C22.5555 24.6126 22.4861 24.7629 22.4173 24.9161C22.3436 25.0672 22.2743 25.2214 22.205 25.3756C22.1703 25.4528 22.1345 25.5303 22.0988 25.6076C22.0631 25.6848 22.0274 25.7621 21.9927 25.8392C22.1953 25.7575 22.3978 25.6751 22.6006 25.5926L22.6023 25.5919L22.6038 25.5913C22.8806 25.4787 23.1579 25.3658 23.4367 25.254L23.4387 25.2533C23.9222 25.0594 24.4057 24.8655 24.8934 24.6713C25.1865 24.5545 25.4797 24.439 25.7738 24.3232L25.7802 24.3206C25.9735 24.2445 26.1683 24.1678 26.3626 24.0909C26.855 23.896 27.3474 23.7012 27.8442 23.5094C27.9276 23.3257 28.0109 23.1419 28.0945 22.9616C28.1363 22.8715 28.1771 22.7814 28.2179 22.6914C28.2587 22.6013 28.2995 22.5113 28.3413 22.4211L28.342 22.4197C28.4254 22.2399 28.5088 22.0601 28.5884 21.8841C28.6283 21.7959 28.6693 21.7075 28.7103 21.6191C28.7512 21.5309 28.7921 21.4427 28.832 21.3545Z" fill="white" fill-opacity="0.06"/>
<path d="M16.7353 30.0825L16.5578 30.4687C16.4987 30.5974 16.4395 30.7261 16.3807 30.8584C15.9212 31.0504 15.462 31.2458 15.0069 31.441L13.6416 32.0264C13.1865 32.2215 12.7355 32.4163 12.2848 32.6145C11.8338 32.8093 11.3832 33.0076 10.9325 33.2058L11.0784 32.886C11.1271 32.7793 11.1758 32.6727 11.2247 32.5696L11.2607 32.4912C11.2973 32.4119 11.3333 32.3336 11.3669 32.2536C11.3836 32.217 11.3999 32.1808 11.416 32.1449C11.4469 32.0763 11.4772 32.0088 11.5094 31.9411C11.9702 31.7209 12.432 31.5002 12.8932 31.2835C13.2474 31.1142 13.6042 30.9468 13.9598 30.78L14.2814 30.629L14.2828 30.6284C14.7479 30.4114 15.2131 30.1944 15.6779 29.9738C16.1435 29.7566 16.6132 29.539 17.0829 29.3214C17.0474 29.3961 17.0136 29.4718 16.9795 29.548C16.9564 29.5997 16.9331 29.6517 16.9092 29.7037C16.8797 29.7679 16.8512 29.8312 16.8226 29.8944L16.7903 29.9658L16.7662 30.019L16.7356 30.086L16.7353 30.0825Z" fill="white" fill-opacity="0.06"/>
<path d="M-0.747296 44.2477C-0.771133 44.3015 -0.794515 44.3543 -0.819652 44.4072L-0.810819 44.4135C-0.849292 44.4946 -0.887763 44.5756 -0.925621 44.6636C-0.951677 44.7242 -0.98134 44.7885 -1.01316 44.8574L-1.0576 44.954C-0.647235 44.8158 -0.240671 44.6813 0.170309 44.5501C0.576876 44.4157 0.987856 44.2844 1.39915 44.1567C1.81013 44.0254 2.22141 43.8976 2.63301 43.7734C2.93075 43.6809 3.22882 43.5921 3.52842 43.5028C3.64226 43.4689 3.75756 43.4345 3.87191 43.4003L4.18483 42.7163C4.22095 42.6309 4.25957 42.5473 4.29868 42.4626L4.33749 42.3782C4.35861 42.3321 4.37904 42.286 4.39937 42.2402C4.42927 42.1728 4.45893 42.1059 4.49016 42.0401C4.14529 42.1588 3.80331 42.2796 3.4597 42.401L3.21629 42.4869C2.7904 42.6371 2.36862 42.787 1.94714 42.9403C1.52576 43.0937 1.10411 43.2471 0.683028 43.4039C0.261553 43.5573 -0.155505 43.7138 -0.576365 43.8741C-0.595621 43.9163 -0.614426 43.9563 -0.632467 43.9946C-0.660014 44.0531 -0.685778 44.1078 -0.708655 44.161C-0.721869 44.1903 -0.734668 44.2192 -0.747296 44.2477Z" fill="white" fill-opacity="0.06"/>
<path d="M9.01459 44.5667C8.60846 44.6588 8.20233 44.7508 7.80031 44.8424L7.64631 44.8789L7.64486 44.8792C7.29427 44.9622 6.94089 45.0458 6.59136 45.1317C6.61727 45.073 6.64422 45.0142 6.67116 44.9554C6.69812 44.8965 6.72508 44.8377 6.75101 44.7789C6.78533 44.7011 6.82145 44.6232 6.85707 44.5464L6.91098 44.4296C6.96282 44.3121 7.01498 44.1981 7.07094 44.0802C7.09701 44.0233 7.123 43.9654 7.14899 43.9076C7.175 43.8497 7.20101 43.7918 7.2271 43.7348C7.6428 43.6101 8.05851 43.4855 8.47452 43.3644C8.89053 43.2433 9.31065 43.1218 9.72697 43.0042L10.9883 42.6503C11.4087 42.5324 11.8335 42.4175 12.2546 42.3066C12.1884 42.45 12.1223 42.5935 12.0602 42.7366C11.9941 42.8799 11.9279 43.0236 11.8621 43.1704C11.8291 43.2421 11.7961 43.3147 11.7631 43.3872C11.7301 43.4599 11.6971 43.5325 11.664 43.6043C11.5982 43.7512 11.532 43.8947 11.4621 44.042C11.0509 44.1239 10.6442 44.2089 10.2336 44.2977C9.96271 44.3543 9.69208 44.4141 9.42145 44.4738C9.286 44.5037 9.14977 44.5337 9.01429 44.5632L9.01459 44.5667Z" fill="white" fill-opacity="0.06"/>
<path d="M22.9312 41.6091C22.9789 41.5034 23.0267 41.3978 23.0755 41.2929L23.084 41.2957C23.1308 41.191 23.1786 41.087 23.2265 40.9831C23.2744 40.8792 23.3222 40.7753 23.3689 40.6707C22.9706 40.7554 22.5757 40.8425 22.1784 40.9302L22.0196 40.9652C21.573 41.0643 21.1255 41.1635 20.6791 41.2661C20.2369 41.3682 19.7938 41.4706 19.3519 41.5763C18.9135 41.6782 18.4713 41.784 18.0335 41.8928C17.9934 41.9793 17.9535 42.0666 17.9135 42.154C17.8735 42.2413 17.8335 42.3286 17.7934 42.4151C17.7133 42.588 17.6335 42.7644 17.5536 42.9408C17.5061 43.0484 17.457 43.1549 17.4081 43.2608C17.3752 43.332 17.3424 43.403 17.3103 43.474C17.2687 43.5636 17.2281 43.6524 17.1874 43.7411L17.1862 43.7438C17.1455 43.8326 17.1048 43.9213 17.0632 44.0109C17.22 43.9833 17.3808 43.9553 17.5416 43.9273L17.5487 43.9261C17.6303 43.9119 17.712 43.8986 17.7936 43.8853C17.8753 43.872 17.957 43.8586 18.0386 43.8444C18.1202 43.8302 18.2018 43.8169 18.2835 43.8036C18.3652 43.7903 18.4469 43.7769 18.5284 43.7627C18.6102 43.7503 18.692 43.737 18.7737 43.7236C18.8553 43.7103 18.9369 43.697 19.0186 43.6846C19.2625 43.6435 19.5102 43.6051 19.7548 43.5672L19.807 43.5591C19.9398 43.5387 20.0717 43.5192 20.2036 43.4997C20.3354 43.4802 20.4673 43.4608 20.6001 43.4403C20.8651 43.3995 21.1303 43.3622 21.3955 43.325L22.1996 43.2121C22.2636 43.0691 22.3295 42.9259 22.3948 42.7837L22.3964 42.7802L22.4951 42.565L22.787 41.9253C22.8358 41.8204 22.8835 41.7148 22.9312 41.6091Z" fill="white" fill-opacity="0.06"/>
<path d="M9.9811 28.7219C9.95662 28.7735 9.93316 28.825 9.90971 28.8764C9.88625 28.9279 9.8628 28.9794 9.83832 29.0309C9.80618 29.0986 9.77581 29.1662 9.74497 29.2347C9.72888 29.2705 9.71251 29.3069 9.69584 29.3434C9.23848 29.5599 8.78522 29.7761 8.33227 29.9957C7.87901 30.2119 7.42606 30.4315 6.97311 30.6512C6.5218 30.87 6.07457 31.0885 5.62735 31.307L5.62248 31.3094C5.3145 31.4599 5.00667 31.612 4.69756 31.7648L4.27246 31.9747L4.31339 31.8854C4.34277 31.8216 4.37032 31.7618 4.39395 31.7063C4.41363 31.6649 4.43132 31.6255 4.44859 31.587C4.46507 31.5502 4.48119 31.5143 4.49826 31.4784C4.51522 31.4426 4.53121 31.407 4.54757 31.3705C4.56483 31.3321 4.5829 31.2918 4.60257 31.2504C4.62333 31.2016 4.64699 31.1513 4.67244 31.0973C4.68908 31.0619 4.70652 31.0248 4.72436 30.9856L6.10236 30.2614C6.33211 30.1407 6.56193 30.0208 6.79175 29.901C7.02141 29.7812 7.25108 29.6614 7.48067 29.5408C7.94031 29.3029 8.40406 29.0646 8.86781 28.8264L10.2591 28.1117C10.2366 28.163 10.2131 28.2136 10.1896 28.2642C10.1662 28.3145 10.1424 28.3657 10.1201 28.4168C10.0977 28.4682 10.0742 28.5196 10.0507 28.5711C10.0273 28.6226 10.0038 28.6741 9.98141 28.7254L9.9811 28.7219Z" fill="white" fill-opacity="0.06"/>
<path d="M3.98357 33.2666C3.53669 33.461 3.08982 33.6554 2.64736 33.853L2.63883 33.8502L1.31145 34.4428C0.868995 34.6404 0.430645 34.8376 -0.0115078 35.0386C-0.22953 35.1385 -0.448565 35.2385 -0.667608 35.3385L-0.670094 35.3396L-0.671859 35.3404C-0.891496 35.4407 -1.11113 35.5409 -1.32974 35.6411C-1.3588 35.7077 -1.38666 35.7682 -1.41305 35.8256C-1.42739 35.8568 -1.4413 35.887 -1.45473 35.9168L-1.66973 36.3945C-1.7079 36.479 -1.74956 36.5709 -1.79852 36.674C-1.36717 36.4915 -0.939621 36.3129 -0.507962 36.134C-0.292052 36.0463 -0.0762179 35.9577 0.139616 35.8691C0.355594 35.7805 0.571576 35.6919 0.787631 35.6041C1.2196 35.4287 1.65567 35.2528 2.08795 35.0809C2.51991 34.9054 2.9563 34.7331 3.39268 34.5608C3.41686 34.5057 3.44213 34.4515 3.46742 34.3972C3.4927 34.3429 3.51798 34.2886 3.54215 34.2336C3.58201 34.1528 3.61934 34.0702 3.65619 33.9887L3.69193 33.9098C3.74028 33.7997 3.78894 33.6931 3.83759 33.5865L3.98357 33.2666Z" fill="white" fill-opacity="0.06"/>
<path d="M25.0621 15.0021C25.0169 15.1015 24.9707 15.2018 24.9246 15.3022C24.8785 15.4023 24.8325 15.5024 24.7874 15.6015C24.7403 15.7026 24.6943 15.8036 24.6483 15.9047C24.6023 16.0057 24.5561 16.1071 24.5091 16.2083C23.9736 16.4316 23.4423 16.6546 22.915 16.8772L22.9136 16.8778C22.3869 17.1002 21.8601 17.3226 21.3374 17.5447C20.8164 17.7661 20.2994 17.9871 19.7825 18.2081L19.7762 18.2108C19.2613 18.4323 18.7464 18.6538 18.2318 18.8789C18.2717 18.7907 18.3117 18.7034 18.3517 18.6161C18.3917 18.5287 18.4317 18.4414 18.4716 18.3531C18.5516 18.1805 18.632 18.007 18.7117 17.8309C18.744 17.7613 18.7756 17.6917 18.807 17.6224C18.8537 17.5196 18.9003 17.4171 18.9483 17.316C18.9864 17.2315 19.0256 17.146 19.0647 17.0605C19.1038 16.975 19.1429 16.8895 19.1811 16.805L19.1905 16.8005C19.7125 16.5549 20.2345 16.3092 20.7602 16.0597C21.2883 15.8127 21.8204 15.5654 22.3526 15.3181L22.356 15.3165C22.7115 15.1512 23.0707 14.9857 23.4299 14.8202L23.9683 14.5718C24.5099 14.3232 25.0514 14.0747 25.6012 13.8254L25.3293 14.4104C25.2841 14.5097 25.2389 14.608 25.1936 14.7064C25.1484 14.8048 25.1032 14.9032 25.058 15.0024L25.0621 15.0021Z" fill="white" fill-opacity="0.06"/>
<path d="M39.156 16.0333C39.2109 15.9146 39.2657 15.796 39.3197 15.6783L39.3155 15.6786C39.4234 15.4433 39.5312 15.208 39.6393 14.9761C39.0788 15.1981 38.5184 15.4201 37.9624 15.6452C37.7851 15.717 37.6082 15.7884 37.4317 15.8597L37.4281 15.8611C37.0523 16.0128 36.6783 16.1637 36.3064 16.3161C35.7583 16.537 35.2146 16.761 34.6709 16.9851L34.6681 16.9863C34.1297 17.2095 33.5906 17.433 33.0563 17.6558L32.9903 17.8001L32.9154 17.9629C32.8684 18.065 32.8214 18.167 32.7745 18.27C32.7276 18.3729 32.6797 18.4768 32.6319 18.5808C32.5841 18.6845 32.5361 18.7887 32.4893 18.8915C32.4407 18.9958 32.3932 19.1 32.3457 19.2043L32.3451 19.2055C32.2973 19.3103 32.2493 19.4155 32.2005 19.5203L32.1545 19.6208L32.0544 19.8385L32.0528 19.8419C32.0046 19.9465 31.9564 20.0511 31.9083 20.1566C32.428 19.9633 32.9519 19.7697 33.4757 19.5761L33.48 19.5746C34.0097 19.38 34.5403 19.185 35.0744 18.9936C35.6123 18.7983 36.1464 18.6068 36.6888 18.4147C37.2304 18.2227 37.7761 18.0305 38.3218 17.8382L38.324 17.8374C38.4394 17.5944 38.5507 17.3517 38.662 17.1089L38.6994 17.0273L38.7751 16.8612C38.8473 16.7029 38.919 16.5456 38.9924 16.3882C39.0461 16.271 39.1008 16.1528 39.1554 16.0346L39.156 16.0333Z" fill="white" fill-opacity="0.06"/>
<path d="M29.411 42.2703C29.2758 42.5674 29.1365 42.865 28.9972 43.1625L28.9963 43.1643C28.8571 43.4659 28.7178 43.7676 28.5788 44.0727L28.5769 44.0728C28.1081 44.1033 27.639 44.1337 27.1747 44.1673C26.7096 44.2009 26.249 44.2377 25.7842 44.2748L24.4072 44.3953C23.955 44.4348 23.5074 44.4809 23.0559 44.5274L23.0438 44.5287C23.1621 44.2712 23.2804 44.0138 23.399 43.7599C23.517 43.5072 23.6309 43.255 23.7448 43.0027L24.091 42.2485C24.1484 42.1257 24.2046 42.0021 24.2608 41.8785L24.2615 41.8771C24.3179 41.7532 24.3744 41.6289 24.4319 41.5057C24.4949 41.4931 24.5579 41.4815 24.6209 41.4698C24.6841 41.4581 24.7477 41.4463 24.8108 41.4337C24.8609 41.4251 24.9109 41.416 24.9609 41.4068L25.0003 41.3995C25.0635 41.3878 25.1267 41.3761 25.19 41.3652C25.2533 41.3544 25.3164 41.3427 25.3796 41.331C25.4428 41.3193 25.506 41.3076 25.5692 41.2968C25.6324 41.2859 25.6956 41.2742 25.7588 41.2625C25.822 41.2508 25.8851 41.2391 25.9484 41.2283L26.6334 41.1048C26.7476 41.0842 26.8618 41.0637 26.9763 41.0466C27.0004 41.0422 27.0246 41.038 27.0487 41.0339L27.2339 41.0032C27.2623 40.9984 27.2907 40.9935 27.3191 40.9884L27.3848 40.9826L27.4446 40.9719L27.514 40.9601L27.5493 40.9542L27.6404 40.9387C27.6654 40.9344 27.6904 40.93 27.7153 40.9255C27.773 40.9149 27.8308 40.9052 27.8891 40.8955C27.9421 40.8867 27.9956 40.8777 28.0499 40.8679C28.16 40.8477 28.2703 40.831 28.3848 40.8139C28.4202 40.8086 28.4559 40.8028 28.4918 40.7969L28.5959 40.7797L28.6559 40.7699L28.7197 40.7599C28.7809 40.7493 28.8432 40.7394 28.9055 40.7296L29.0082 40.7131C29.036 40.7086 29.0638 40.704 29.0913 40.6992C29.1549 40.6881 29.2197 40.6779 29.285 40.6676C29.3453 40.6581 29.4063 40.6485 29.467 40.6381C29.5935 40.6164 29.7162 40.5986 29.843 40.5805C29.8787 40.5754 29.9141 40.57 29.9492 40.5645L30.031 40.5517C30.0933 40.5418 30.1556 40.5319 30.219 40.5229L30.0839 40.815C29.9952 41.0063 29.906 41.1987 29.8187 41.3909L29.683 41.6841C29.5923 41.8796 29.5017 42.0751 29.4113 42.2738L29.411 42.2703Z" fill="white" fill-opacity="0.06"/>
<path d="M28.3134 30.1314L28.3128 30.1327C28.262 30.2439 28.2107 30.356 28.1589 30.4673L28.155 30.4712C28.0504 30.6956 27.9461 30.9236 27.8418 31.1516C27.7999 31.2431 27.7574 31.3347 27.7148 31.4265C27.6512 31.5633 27.5873 31.7009 27.5251 31.8394C27.4211 32.0709 27.3133 32.3062 27.2052 32.538C27.4234 32.4828 27.6424 32.4268 27.8618 32.3707L27.8636 32.3703C28.1364 32.3005 28.4104 32.2304 28.684 32.1616C29.1825 32.0368 29.681 31.912 30.1799 31.7907C30.6828 31.669 31.1857 31.5474 31.6928 31.4254C32.1999 31.3033 32.7113 31.1845 33.2228 31.0656C33.348 30.7936 33.4735 30.5211 33.599 30.2526C33.6793 30.0752 33.7614 29.8976 33.8431 29.7211L33.8441 29.719L33.9689 29.4486C34.0902 29.1848 34.2119 28.9201 34.3336 28.6599C34.4117 28.4872 34.4915 28.3143 34.5709 28.1425L34.692 27.8802C34.4896 27.9408 34.2878 28.0008 34.0866 28.0607C33.758 28.1585 33.431 28.2558 33.1057 28.3543C32.5812 28.5131 32.0607 28.6716 31.5403 28.8301C31.024 28.9882 30.508 29.1499 29.9961 29.3111C29.6411 29.4205 29.2883 29.533 28.9361 29.6454C28.7805 29.695 28.6241 29.7449 28.4686 29.7942C28.4162 29.9065 28.3647 30.0192 28.3134 30.1314Z" fill="white" fill-opacity="0.06"/>
<path d="M-6.71743 46.6318C-6.69647 46.5877 -6.67552 46.5436 -6.65487 46.4959C-6.63419 46.4482 -6.60971 46.3967 -6.58173 46.3377L-6.57894 46.3365C-6.16526 46.1524 -5.75159 45.9683 -5.34171 45.788C-4.9268 45.607 -4.51569 45.4298 -4.10048 45.2523C-3.68526 45.0748 -3.27384 44.9011 -2.85801 44.7306C-2.44249 44.5566 -2.03076 44.3865 -1.61463 44.2194L-1.61401 44.2264L-1.62335 44.2472C-1.65433 44.3162 -1.6827 44.3794 -1.71133 44.4397C-1.72751 44.4738 -1.74169 44.5058 -1.75544 44.5369C-1.76842 44.5663 -1.78108 44.5949 -1.79465 44.6235C-1.82263 44.6824 -1.85031 44.7448 -1.87767 44.8108C-1.89262 44.8422 -1.9075 44.8745 -1.92312 44.9084C-1.9404 44.9459 -1.95859 44.9853 -1.97879 45.0279C-2.28413 45.1397 -2.58928 45.2535 -2.89615 45.3679L-2.89784 45.3685L-3.19831 45.4805C-3.60334 45.6324 -4.00807 45.7878 -4.41249 45.9468C-4.81691 46.1057 -5.22133 46.2646 -5.62544 46.427C-6.02955 46.5895 -6.43336 46.7554 -6.84097 46.9252C-6.81299 46.8663 -6.78881 46.8112 -6.76814 46.7635C-6.7578 46.7397 -6.74738 46.7167 -6.73697 46.6937L-6.71852 46.6528L-6.7058 46.6239L-6.71743 46.6318Z" fill="white" fill-opacity="0.06"/>
<path d="M-22.4716 46.9787C-22.4853 47.0117 -22.4993 47.0412 -22.5132 47.0706L-22.5174 47.071C-22.5313 47.1004 -22.5454 47.1299 -22.559 47.1629C-22.5658 47.1793 -22.5737 47.1959 -22.582 47.2133C-22.5903 47.2308 -22.5991 47.2493 -22.6077 47.2695C-22.1908 47.0636 -21.7736 46.8612 -21.3564 46.6588C-20.9431 46.4602 -20.5256 46.2614 -20.1119 46.0663C-19.6946 45.8711 -19.2811 45.6798 -18.8675 45.4885L-18.8661 45.4879C-18.4521 45.2963 -18.0337 45.1079 -17.6191 44.9234C-17.5911 44.8645 -17.5666 44.8129 -17.5459 44.7652C-17.5253 44.7175 -17.5043 44.6733 -17.4833 44.6291C-17.4623 44.585 -17.4413 44.5407 -17.4207 44.4931C-17.4062 44.4651 -17.3933 44.436 -17.3795 44.405C-17.3696 44.3827 -17.3592 44.3595 -17.3475 44.3349L-17.6447 44.4777C-17.968 44.633 -18.2932 44.7893 -18.6152 44.947C-19.0362 45.1533 -19.461 45.3634 -19.8817 45.5732C-20.3065 45.7833 -20.7268 45.9966 -21.151 46.2137C-21.5752 46.4308 -21.9991 46.6515 -22.4229 46.8721C-22.4315 46.8923 -22.4403 46.9107 -22.4486 46.9282C-22.4569 46.9457 -22.4647 46.9622 -22.4716 46.9787Z" fill="white" fill-opacity="0.06"/>
<path d="M-6.58866 40.4807C-6.42832 40.4014 -6.26811 40.3222 -6.10852 40.2425C-5.67962 40.032 -5.25072 39.8215 -4.81771 39.6107C-4.48964 39.4497 -4.15899 39.2905 -3.82958 39.1319L-3.52628 38.9858L-3.53573 39.0069C-3.56664 39.0757 -3.59502 39.1389 -3.62359 39.1991C-3.63971 39.233 -3.65382 39.2649 -3.66752 39.2959C-3.67055 39.3027 -3.67401 39.3106 -3.67702 39.3173C-3.68206 39.3287 -3.68709 39.3399 -3.6922 39.3512L-3.70692 39.3829C-3.73489 39.4418 -3.76289 39.5007 -3.79024 39.5667C-3.80675 39.6064 -3.82615 39.6478 -3.84655 39.6912C-3.85996 39.7198 -3.87381 39.7493 -3.88756 39.7799L-5.15512 40.3461L-5.15664 40.3468C-5.57812 40.5388 -6.00027 40.731 -6.42145 40.9264C-6.843 41.122 -7.26562 41.3181 -7.68686 41.5172C-8.10846 41.7164 -8.53007 41.9157 -8.95136 42.1184C-8.93968 42.0939 -8.92933 42.0706 -8.91942 42.0484C-8.9056 42.0173 -8.89266 41.9883 -8.87822 41.9603C-8.86322 41.9312 -8.85111 41.9036 -8.83925 41.8766L-8.82808 41.8514L-8.81557 41.8242C-8.80729 41.8067 -8.79964 41.7893 -8.7919 41.7717C-8.78004 41.7447 -8.76791 41.7171 -8.75292 41.6881C-8.74222 41.6634 -8.73049 41.6377 -8.71831 41.6109C-8.70697 41.5861 -8.69524 41.5603 -8.68359 41.5338C-8.2515 41.3124 -7.82321 41.0949 -7.39461 40.8809L-7.39842 40.8848C-7.13004 40.7485 -6.8598 40.6148 -6.58996 40.4814L-6.58866 40.4807Z" fill="white" fill-opacity="0.06"/>
<path d="M-23.7755 53.853C-23.7824 53.8686 -23.7893 53.8842 -23.7962 53.9007L-23.7965 53.8972C-23.8036 53.9145 -23.8119 53.9329 -23.8206 53.9523C-23.8284 53.9698 -23.8367 53.9882 -23.8448 54.0073C-23.4419 53.8309 -23.0387 53.658 -22.6393 53.4889C-22.2361 53.316 -21.8365 53.1504 -21.4364 52.9883C-21.0367 52.8264 -20.6362 52.6641 -20.2358 52.5091C-19.8352 52.354 -19.4343 52.2025 -19.0334 52.0509C-19.0054 51.992 -18.9812 51.9369 -18.9605 51.8892C-18.9399 51.8416 -18.9191 51.7938 -18.8982 51.7496C-18.8772 51.7055 -18.8565 51.6578 -18.8359 51.6101C-18.8152 51.5624 -18.791 51.5073 -18.763 51.4484C-19.1706 51.6181 -19.5783 51.788 -19.9855 51.9613L-20.154 52.0329C-20.5061 52.1825 -20.8603 52.333 -21.211 52.4885C-21.4989 52.6162 -21.7867 52.7456 -22.0759 52.8757L-22.4345 53.0368C-22.845 53.221 -23.2549 53.4121 -23.6648 53.6033C-23.6729 53.6225 -23.6812 53.6408 -23.689 53.6583C-23.6977 53.6777 -23.706 53.6961 -23.7131 53.7134C-23.7268 53.7464 -23.7408 53.7759 -23.7548 53.8053C-23.7616 53.8218 -23.7686 53.8374 -23.7755 53.853Z" fill="white" fill-opacity="0.06"/>
<path d="M-11.1987 34.306L-11.207 34.3245C-11.2169 34.3469 -11.2273 34.3698 -11.2382 34.3937C-11.2576 34.4363 -11.2784 34.4822 -11.3005 34.5339C-11.5207 34.6468 -11.7398 34.7596 -11.959 34.8724L-11.9627 34.8743C-12.1801 34.9862 -12.3979 35.0983 -12.6164 35.2103C-13.0564 35.4358 -13.492 35.6646 -13.9276 35.8933C-14.3632 36.122 -14.8025 36.3546 -15.2378 36.5868C-15.5665 36.7608 -15.8927 36.9365 -16.2199 37.1128L-16.5513 37.2912C-16.5233 37.2323 -16.5026 37.1846 -16.482 37.1369C-16.4737 37.1179 -16.4654 37.1001 -16.4573 37.0827C-16.4451 37.0564 -16.4333 37.0311 -16.4231 37.0047C-16.4048 36.9661 -16.3894 36.9305 -16.372 36.8903L-16.3643 36.8724C-16.3436 36.8248 -16.3229 36.777 -16.2946 36.7216C-15.8488 36.4673 -15.4028 36.2165 -14.9605 35.9695L-14.7065 35.8276L-14.7052 35.8269C-14.3469 35.6266 -13.9862 35.4248 -13.6254 35.2279C-13.179 34.9806 -12.7365 34.7372 -12.2898 34.4934L-11.9506 34.308C-11.6185 34.1264 -11.287 33.9451 -10.9535 33.7658C-10.9699 33.8022 -10.9855 33.8363 -11.0004 33.8686C-11.017 33.9047 -11.0327 33.9387 -11.0473 33.9717C-11.0607 34.0019 -11.0742 34.0313 -11.0873 34.0599C-11.1012 34.0903 -11.1147 34.1197 -11.1271 34.1481C-11.1522 34.201 -11.1745 34.2512 -11.1987 34.306Z" fill="white" fill-opacity="0.06"/>
<path d="M0.750587 29.381L0.770294 29.3383C0.781804 29.3133 0.793178 29.2884 0.804519 29.2632L0.80041 29.2635C0.817475 29.2276 0.834467 29.1908 0.851866 29.1532C0.870045 29.1138 0.888905 29.073 0.908525 29.0317C0.932257 28.976 0.959618 28.9166 0.989154 28.8525L1.03001 28.7634C0.807576 28.8729 0.585213 28.9833 0.362851 29.0936L0.361204 29.0944C0.139537 29.2045 -0.0821272 29.3145 -0.30387 29.4237C-0.641304 29.5898 -0.976196 29.7577 -1.31227 29.9262L-1.63334 30.0871L-1.95319 30.2482C-2.28806 30.4168 -2.62458 30.5862 -2.95808 30.7572C-3.17793 30.8699 -3.3988 30.9827 -3.61968 31.0955C-3.84087 31.2085 -4.06205 31.3214 -4.28221 31.4343C-4.31688 31.5114 -4.34805 31.5812 -4.37572 31.6437C-4.3949 31.6816 -4.4112 31.7179 -4.42725 31.7537C-4.4378 31.7772 -4.44827 31.8006 -4.45935 31.8239C-4.48733 31.8829 -4.51531 31.9418 -4.54299 32.0042C-4.57324 32.064 -4.60294 32.1301 -4.63563 32.2029L-4.64061 32.214C-4.4961 32.1448 -4.35162 32.0753 -4.20714 32.0057C-3.9185 31.8668 -3.62957 31.7278 -3.34065 31.5919C-2.90733 31.3846 -2.47371 31.1808 -2.04008 30.9769C-1.82344 30.8769 -1.60687 30.776 -1.3903 30.6751L-1.38782 30.674C-1.17144 30.5732 -0.955056 30.4723 -0.738598 30.3724C-0.418629 30.2231 -0.100529 30.0778 0.218555 29.932L0.571419 29.7707C0.600519 29.7118 0.625534 29.6558 0.649062 29.6031C0.665307 29.5667 0.68102 29.5316 0.696714 29.4985C0.71532 29.4573 0.733165 29.4187 0.750587 29.381Z" fill="white" fill-opacity="0.06"/>
<path d="M3.16273 44.5248C3.49661 44.4114 3.83347 44.3002 4.16858 44.1896L4.38623 44.1177L4.34182 44.2143C4.30999 44.2832 4.28032 44.3475 4.25425 44.4081C4.22627 44.467 4.20167 44.5225 4.17707 44.578C4.17095 44.5918 4.16483 44.6056 4.15866 44.6195C4.15243 44.6335 4.14614 44.6475 4.13975 44.6617C4.10128 44.7427 4.06311 44.8272 4.02526 44.9153C4.00551 44.9568 3.98597 45.0008 3.96535 45.0471C3.94224 45.099 3.91741 45.1548 3.88977 45.213C3.61392 45.2888 3.33638 45.368 3.0596 45.4471C2.97625 45.4709 2.89195 45.495 2.80881 45.5187C2.77166 45.5292 2.73454 45.5398 2.69745 45.5503C2.30168 45.6661 1.90592 45.7819 1.51045 45.9013C1.11546 46.0204 0.720767 46.1431 0.326078 46.2658L0.32469 46.2662C-0.02298 46.3743 -0.370178 46.4877 -0.720115 46.6021L-0.863655 46.649C-0.82549 46.5645 -0.790515 46.4908 -0.759039 46.4245C-0.727563 46.3583 -0.699889 46.2958 -0.672215 46.2334C-0.644543 46.171 -0.616869 46.1085 -0.585393 46.0422C-0.570448 46.0108 -0.555641 45.9777 -0.540095 45.943C-0.522895 45.9046 -0.504788 45.8642 -0.484579 45.8216C-0.0795473 45.6697 0.325791 45.5213 0.731437 45.3764C1.13708 45.2315 1.54273 45.0866 1.94868 44.9451C2.35463 44.8037 2.76058 44.6623 3.16715 44.5279L3.16273 44.5248Z" fill="white" fill-opacity="0.06"/>
<path d="M4.47015 39.1123C4.50831 39.0278 4.54998 38.9359 4.59894 38.8328L4.59833 38.8258C4.17078 39.0044 3.74323 39.183 3.31599 39.3651C3.19794 39.4154 3.08019 39.4654 2.96258 39.5153C2.65449 39.6462 2.34735 39.7767 2.03837 39.911C1.61524 40.0927 1.1883 40.2784 0.765472 40.4636C0.342646 40.6488 -0.0839853 40.838 -0.506505 41.0267C-0.523393 41.0663 -0.540503 41.1035 -0.556788 41.1388C-0.573634 41.1753 -0.589596 41.2099 -0.603513 41.2435C-0.630878 41.3094 -0.658552 41.3718 -0.686533 41.4307C-0.710095 41.4928 -0.738073 41.5517 -0.76955 41.618C-0.784504 41.6495 -0.799389 41.6818 -0.815021 41.7157C-0.832292 41.7532 -0.850475 41.7926 -0.870669 41.8351C-0.454838 41.6646 -0.0428112 41.498 0.373327 41.331C0.789465 41.1639 1.2018 41.0008 1.61824 40.8373C2.03469 40.6738 2.45144 40.5138 2.86819 40.3538C3.28494 40.1938 3.702 40.0373 4.11905 39.8808C4.1541 39.807 4.18524 39.7371 4.21411 39.6724C4.22558 39.6467 4.23669 39.6218 4.24754 39.5977C4.26619 39.5564 4.28491 39.516 4.30323 39.4764C4.3224 39.4349 4.34112 39.3945 4.35885 39.355C4.3874 39.2979 4.41355 39.2392 4.44059 39.1784C4.45028 39.1566 4.46008 39.1346 4.47015 39.1123Z" fill="white" fill-opacity="0.06"/>
</g>
</g>
</g>
<defs>
<linearGradient id="paint0_linear_0_9" x1="-43.1478" y1="40" x2="146" y2="40" gradientUnits="userSpaceOnUse">
<stop stop-color="#D9D9D9" stop-opacity="0"/>
<stop offset="1" stop-color="#737373"/>
</linearGradient>
</defs>
</svg>